<svg xmlns="http://www.w3.org/2000/svg" width="1835" height="1610" viewBox="0 0 1835 1610">
  <metadata><?xpacket begin="﻿" id="W5M0MpCehiHzreSzNTczkc9d"?>
<x:xmpmeta xmlns:x="adobe:ns:meta/" x:xmptk="Adobe XMP Core 5.6-c140 79.160451, 2017/05/06-01:08:21        ">
   <rdf:RDF xmlns:rdf="http://www.w3.org/1999/02/22-rdf-syntax-ns#">
      <rdf:Description rdf:about=""/>
   </rdf:RDF>
</x:xmpmeta>
                                                                                                    
                                                                                                    
                                                                                                    
                                                                                                    
                                                                                                    
                                                                                                    
                                                                                                    
                                                                                                    
                                                                                                    
                                                                                                    
                                                                                                    
                                                                                                    
                                                                                                    
                                                                                                    
                                                                                                    
                                                                                                    
                                                                                                    
                                                                                                    
                                                                                                    
                                                                                                    
                           
<?xpacket end="w"?></metadata>
<defs>
    <style>
      .cls-1 {
        fill: #d5d5d5;
      }

      .cls-1, .cls-2, .cls-3, .cls-4 {
        fill-rule: evenodd;
      }

      .cls-2 {
        fill: #9e9c9d;
      }

      .cls-3 {
        fill: #d9d9d9;
      }

      .cls-4 {
        fill: #b9b8b9;
      }
    </style>
  </defs>
  <path class="cls-1" d="M415.447,860.778S426.293,274.137,1028.6,451.889c0,0,252.72,25.944,281.03,408.889,0,0,79.65-224.533-89.42-460,0,0-3.7-188.409-408.769-242.778,0,0-379.373,70.853-383.22,370.556C428.221,528.556,357.677,743.045,415.447,860.778Z" transform="translate(-45 -158)"/>
  <path class="cls-2" d="M466.543,1525.22s15.312,106.62,421.542,166.11c0,0,371,.97,472.635-217.22,0,0-121.64,2.44-127.74-51.11l-12.77-178.89s27.15-116.15,89.42-178.89c0,0,112.47-252.333,0-191.664,0,0,122.69-450.69-498.189-498.334,0,0-380.732-25.317-408.768,472.778,0,0-120.949-49.438-25.548,178.89,0,0,32.539,91.95,89.418,140.55,0,0,6.717,73.29,38.322,102.23v230Z" transform="translate(-45 -158)"/>
  <path class="cls-3" d="M453.769,681.889s66.258-261.744,319.35-281.111c0,0,358.031-65.585,510.961,281.111,0,0-26.58,124.754-114.97,0,0,0-147.81-222.123-472.635-115,0,0-126.669,64.19-178.836,127.778C517.639,694.667,480.115,754.143,453.769,681.889Z" transform="translate(-45 -158)"/>
  <path class="cls-4" d="M415.447,822.444s3.286-421.375,357.672-460c0,0,571.821-66.313,536.511,485.556,0,0-1.64-475.632-549.285-434.444C760.345,413.556,513,384.806,415.447,822.444Z" transform="translate(-45 -158)"/>
  <path class="cls-3" d="M466.543,1512.44s-10.569,124.15,434.316,178.89c0,0,373.211-54.62,459.861-230,0,0,203.26,66.27,217.16,76.67s228.37,141.73,268.26,153.33,25.55,25.56,25.55,25.56,25.49,45.97-12.78,51.11H45s64.092-54.66,89.418-76.67c0,0,113.954-99.63,178.836-115C313.254,1576.33,435.019,1541.84,466.543,1512.44Z" transform="translate(-45 -158)"/>
</svg>
