<svg xmlns="http://www.w3.org/2000/svg" width="400" height="126" viewBox="0 0 400 126">
  <metadata><?xpacket begin="﻿" id="W5M0MpCehiHzreSzNTczkc9d"?>
<x:xmpmeta xmlns:x="adobe:ns:meta/" x:xmptk="Adobe XMP Core 5.6-c140 79.160451, 2017/05/06-01:08:21        ">
   <rdf:RDF xmlns:rdf="http://www.w3.org/1999/02/22-rdf-syntax-ns#">
      <rdf:Description rdf:about=""/>
   </rdf:RDF>
</x:xmpmeta>
                                                                                                    
                                                                                                    
                                                                                                    
                                                                                                    
                                                                                                    
                                                                                                    
                                                                                                    
                                                                                                    
                                                                                                    
                                                                                                    
                                                                                                    
                                                                                                    
                                                                                                    
                                                                                                    
                                                                                                    
                                                                                                    
                                                                                                    
                                                                                                    
                                                                                                    
                                                                                                    
                           
<?xpacket end="w"?></metadata>
<defs>
    <style>
      .cls-1 {
        fill: #4e5163;
        fill-rule: evenodd;
      }
    </style>
  </defs>
  <path class="cls-1" d="M89.441,187.992H94.9a0.383,0.383,0,0,0,.218.217v0.652l2.183,0.218v7.827l-2.183.217v1.087h1.965a11.876,11.876,0,0,1,.218,3.479,6.768,6.768,0,0,1-2.183.217v0.87h1.965a14.375,14.375,0,0,1,.218,4.131,6.765,6.765,0,0,1-2.183.218v30h1.747l0.218,0.652c0.464,0.525.218,2.343,0.218,3.261v8.7h3.712c0.574,3.2.221,7.508,0.218,11.089h2.184c0.583-1.575.229-5.141,0.218-7.175,1.691-.615,5.477-0.218,7.642-0.218h17.031V235.824a1.323,1.323,0,0,1-1.31-1.087h-0.219v-1.522a6.649,6.649,0,0,1,.874-0.869c0.4-.446.1-0.016,0.655-0.218,2.447-.89,3.537,3.218.873,3.7v8.48H129.4a6.631,6.631,0,0,1,1.529-.87l0.218-.435h0.437v-0.217h0.436l0.219-.435,2.4-1.305V221.474c-0.6-.14-0.5-0.284-1.092-0.434-0.332-1.415-.618-1.342,0-2.827a4.266,4.266,0,0,1,2.183-.652l1.31,1.087v1.739c-0.248.248-.087,0-0.218,0.435a3.987,3.987,0,0,1-1.31.652v20a4.132,4.132,0,0,0-1.528.652l-0.219.435h-0.436l-0.219.435-0.873.218-0.219.434h-0.436l-0.219.435-0.873.218-0.218.435h-0.437v0.217l-0.655.217v2.609H150.14c-0.023-1.086-.239-4.927.218-5.435,0.232-.837.486-0.657,1.092-1.087,0.145-.218.291-0.435,0.436-0.652h0.437l0.437-.653H153.2q0.108-.218.218-0.435h0.437c0.145-.217.291-0.434,0.436-0.652h0.437l0.437-.652H155.6l0.219-.435h0.436l0.437-.652h0.437l0.436-.653H158q0.11-.216.218-0.434h0.437l0.437-.653h0.436l0.219-.434a2.894,2.894,0,0,1,2.183-.653,4.5,4.5,0,0,0,1.529,1.087q0.108,0.217.218,0.435h0.437c0.145,0.218.291,0.435,0.436,0.652h0.437v0.218l0.655,0.217,0.218,0.435H166.3q0.218,0.327.437,0.652h0.436l0.219,0.435h0.436l0.437,0.653H168.7V239.3l0.655,0.217q0.108,0.217.218,0.435h0.437l0.436,0.653c0.858,0.6,1.571.353,1.747,1.739,0.46,0.51.237,4.346,0.218,5.435h20.961V230.606l-0.655-.217v-0.218c-0.56-.387-0.417.236-0.655-0.652-0.48-.5-0.119-1.615,0-2.174a4.126,4.126,0,0,1,2.4-.652c0.249,0.247,0,.086.437,0.217,0.573,0.978.864,0.687,0.873,2.392-0.38.305-.1,0.285-0.218,0.434l-0.655.435v0.218l-0.655.217v22.612h16.812V237.564c0-2.83-.227-6.228.218-8.7h19.869c0.893,1.737.437,5.566,0.437,8.044v18.7h2.183v0.217c1.117,0.315,2.615-.11,3.494.217v-10c1.566-.8,4.923-0.435,7.2-0.435H260.62V234.955l2.184-1.74,0.436-.652h0.437v-0.217l0.655-.435,0.873-1.087h0.437l1.31-1.522h0.218V206.907l-0.655-.217v-0.218c-0.56-.387-0.417.236-0.655-0.652-0.48-.5-0.119-1.615,0-2.174,1.836-1.081,3.78-.856,3.712,1.957-0.38.3-.1,0.285-0.218,0.434l-0.655.435v0.218l-0.655.217v22.612l-1.747,1.522q-0.11.218-.218,0.435h-0.437v0.217l-0.873.653q-0.328.433-.655,0.869h-0.437l-1.31,1.522H261.93q-0.217.327-.437,0.652h-0.218v20c4.453-.1,8.826.953,8.952,5h10.48V249.957h-0.218v-0.435l-0.437-.218V248.87l-0.436-.218v-0.435L279.179,248v-0.435l-0.437-.217q-0.108-.435-0.218-0.87l-0.437-.218v-0.434h-0.218a1.524,1.524,0,0,1-.218-0.87l0.655-.217c0.525-.458,3.748-0.218,4.8-0.218h13.319V227.78c0-3.034-.263-6.681.218-9.349a48.381,48.381,0,0,1,7.424-.218h13.1c0.532,1.011.455,2.319,0.437,3.914,0.556,0.631.218,3.06,0.218,4.131v11.306h10.7c0.664-1.814.218-5.953,0.218-8.262V210.821c-1.336-.533-2.171-1.593-1.31-3.044l0.219-.652h0.436v-0.218h0.437V206.69l1.528,0.217,0.437,0.652,0.437,0.218v0.652h0.218q-0.109.653-.218,1.305c-0.62.365-.594,0.75-1.529,0.869V246.7c1.316,0.486,3.764.229,5.459,0.218q0.109-9.131.218-18.264c1.779-.906,6.558-0.435,9.171-0.435h21.179a1.32,1.32,0,0,1,1.091-1.3v-0.217h1.747a0.659,0.659,0,0,0,.655.434,4.138,4.138,0,0,1,.218,2.609l-0.655.435v0.218h-0.436v0.217a2.225,2.225,0,0,1-2.62-1.522h-9.171v37.4h6.769A12.346,12.346,0,0,0,363.24,263v-6.523c1.07-.548,2.489-0.435,4.149-0.435h8.078c-0.018-3.3-.316-7.293.219-10.218a39.593,39.593,0,0,1,6.113-.218,22.312,22.312,0,0,1,.218-3.913l0.655-.218c0.537-.478,4.946-0.236,6.114-0.217a4.61,4.61,0,0,0,.655.652v3.7h1.965c0.735,1.428.437,4.405,0.437,6.523v14.35H404.07a1.323,1.323,0,0,1,1.092-1.305c0.659-.683,1.326-0.19,2.183,0a4.093,4.093,0,0,1,.655,2.392c-0.249.247-.087,0-0.218,0.435a12.047,12.047,0,0,1-1.31.869c-1.238.387-2.236-.911-2.4-1.739H392.061c-0.426,1.158-.218,3.263-0.218,4.783v9.567l-0.655.217c-0.587.507-2.708,0.218-3.712,0.218H335.729v2.174c1.339,0.772,2.111,2.307,3.275,3.261v5.871a1.323,1.323,0,0,1,1.31,1.087h0.219v1.739c-0.943.557-.782,1.053-2.4,1.087V296.92h-0.437V296.7h-0.436a3.507,3.507,0,0,1-.655-2.174q0.545-.653,1.091-1.3l0.655-.218v-5.218h-0.218v-0.435l-0.655-.435q-0.873-.978-1.747-1.957l-0.655-.434v-2.609H281.581v9.349a1.325,1.325,0,0,1,1.31,1.087h0.218v1.522h-0.218c-0.71,1.432-1.5,1.559-3.057.869a3.108,3.108,0,0,1-.655-2.391c0.655-.429.206-0.614,1.092-0.87,0.248-.247,0-0.086.436-0.217v-9.349H223.5v8.262l1.529,1.087V291.7h0.218a4.19,4.19,0,0,1-.437,1.956,2.4,2.4,0,0,1-2.183.653v-0.218l-0.874-.217v-0.435l-0.436-.217q0.109-1.087.218-2.175a4.006,4.006,0,0,1,1.31-.652v-8.479H151.013v12.175l1.092,0.652q0.109,0.544.218,1.088h0.218q-0.218.76-.436,1.522c-1.144.563-2.434,1.209-3.275-.218-1.174-1.07.067-2.812,1.31-3.044V281.918H54.07v8.7c2.347,0.961,2.407,4.187-.873,4.131l-1.31-1.087v-1.739c0.249-.248.087,0,0.218-0.435a4.011,4.011,0,0,1,1.31-.652v-8.914H32.236c-3.664,0-8.069.369-11.354-.218-0.657-3.676-.218-8.549-0.218-12.61v-23.7H11.93a1.321,1.321,0,0,1-1.092,1.3c-0.659.683-1.327,0.19-2.183,0A4.505,4.505,0,0,1,8,244.3c0.249-.248.087,0,0.218-0.435a12.053,12.053,0,0,1,1.31-.87c1.237-.387,2.236.911,2.4,1.74h8.734c-0.019-3.776-.4-8.348.218-11.741a85.457,85.457,0,0,1,14.192,0,44.639,44.639,0,0,1,.218,6.957h2.62c0.668,1.3.437,3.906,0.437,5.871v13.045h2.4v-48.05c0-1.284-.212-3.035.437-3.7,0.568-.494,4.714-0.218,5.9-0.218H63.677c0.464,1.269.218,3.579,0.218,5.218v47.4H67.17v-8.914a2.666,2.666,0,0,0,.437-0.435h3.057v-12.61c1.1-.566,2.665-0.435,4.367-0.435h8.3V207.342H81.363c-0.468-1.256-.23-3.589-0.218-5.218a3.425,3.425,0,0,1,2.183-.435v-1.522H81.363a13.54,13.54,0,0,1-.218-3.913,6.765,6.765,0,0,1,2.183-.218v-1.522H81.363c-0.468-1.256-.23-3.589-0.218-5.218a6.768,6.768,0,0,1,2.183-.217v-0.653c1.21-.627,3.386-0.451,5.24-0.434V175.816a1.324,1.324,0,0,1-1.31-1.087H87.039v-1.74a0.656,0.656,0,0,0,.437-0.652,4.186,4.186,0,0,1,2.62-.217c0.573,0.978.865,0.687,0.873,2.391-0.381.3,0.015,0.14-.218,0.435l-0.655.435V175.6l-0.655.217v12.176Zm-1.092-15.22a2.219,2.219,0,0,0-.655,1.522h0.218l0.218,0.652a1.67,1.67,0,0,0,1.965-.435v-1.3a0.867,0.867,0,0,1-.437-0.435h-1.31ZM45.555,191.253v8.914H59.092v-5h0.873v5h3.712c0.428,1.148.229,3.272,0.218,4.783-1.6.583-5.143,0.218-7.205,0.218H40.969c-0.582-1.11-.454-2.844-0.437-4.566,0.249-.248.087,0,0.218-0.435h3.93v-8.914a1.324,1.324,0,0,1-1.31-1.087H43.153v-1.74a0.656,0.656,0,0,0,.437-0.652,4.186,4.186,0,0,1,2.62-.217,5.386,5.386,0,0,0,.655.652v0.652A1.762,1.762,0,0,1,45.555,191.253Zm-1.092-3.044a2.219,2.219,0,0,0-.655,1.522c0.7,0.573.374,0.813,1.747,0.87a2.664,2.664,0,0,0,.655-1.957,0.868,0.868,0,0,1-.437-0.435h-1.31ZM84.2,188.861v48.268h3.275v-26.96h0.655v26.96h2.62v-26.96h0.873v26.96h2.838V188.861H84.2Zm10.917,0.87v6.523h1.528v-6.523H95.118Zm-13.1.217v3.914h1.31v-3.914h-1.31Zm3.93,1.087h6.769a11.879,11.879,0,0,1,.218,3.479c-1.59.585-4.558,0.229-6.55,0.218v2.391h6.332a12.715,12.715,0,0,1,.218,3.7c-1.59.586-4.558,0.229-6.55,0.218v2.174h6.332a12.715,12.715,0,0,1,.218,3.7,45.289,45.289,0,0,1-6.987.218v-0.87H92.28v-2.174c-1.59-.586-4.558-0.229-6.55-0.218a19.745,19.745,0,0,1-.218-3.261c1.461-.755,4.6-0.451,6.769-0.435v-2.392h-6.55a10.143,10.143,0,0,1,0-3.7,42.453,42.453,0,0,1,6.55-.217v-2.174H85.948v-0.653Zm-3.93,5.653v2.827h1.31v-2.827h-1.31Zm13.1,2.175v2.174h1.528v-2.174H95.118Zm-53.712,1.956V204.3H63.24v-3.479H41.406Zm40.611,1.74v4.131h1.31v-4.131h-1.31Zm13.1,1.087v2.609h1.528v-2.609H95.118Zm172.271,0v0.217h-0.655v0.218a1.412,1.412,0,0,0-.437,1.3,1.693,1.693,0,0,1,.437.652l1.091,0.218v-0.218c0.89-.2.91-0.637,0.874-1.739A4.016,4.016,0,0,0,267.389,203.646ZM41.625,207.559v51.312h6.332c1.31,0,1.818-.109,2.4.652h0.218v5.218h2.838v-5H54.07q0.109,9.13.218,18.263h2.183V259.741a11.147,11.147,0,0,1,3.275-.218c0.546,1.487.218,4.213,0.218,6.088v12.828H59.092V260.175H57.127v18.481a10.283,10.283,0,0,1-3.057.218l0.218,2.174H63.24c0-24.473,0-48.443,0-73.271-1.659-.6-4.706-0.218-6.769-0.218H41.625Zm286.463,0.218a7.573,7.573,0,0,0-.218,1.522,1.318,1.318,0,0,0,2.4-1.087,2.4,2.4,0,0,0-1.747-.653C328.275,207.807,328.523,207.646,328.087,207.777ZM44.245,211.038H60.62a2.645,2.645,0,0,0,.437.435v3.044c-1.272.464-3.6,0.217-5.24,0.217H44.681a6.7,6.7,0,0,0-.218,2.175H60.838a21.345,21.345,0,0,1,.218,3.478c-1.272.464-3.6,0.218-5.24,0.218H44.681a5.826,5.826,0,0,0-.218,1.957c1.272,0.463,3.595.217,5.24,0.217H60.838a11.023,11.023,0,0,1,.218,3.261c-1.233.631-3.368,0.435-5.24,0.435H44.463v1.957H60.62a2.645,2.645,0,0,0,.437.435v3.044c-1.272.463-3.6,0.217-5.24,0.217H44.681a6.7,6.7,0,0,0-.218,2.174H60.183c0.626,1.707.218,4.844,0.218,6.958V256.7a12.013,12.013,0,0,1-3.494.217c-0.525-1.431-.218-4.054-0.218-5.87V238.216h-2.4v18.263a2.666,2.666,0,0,0-.437.435H50.795c-0.526-1.431-.218-4.054-0.218-5.87V238.216h-2.62V256.7a11.184,11.184,0,0,1-3.275.217c-0.69-1.34-.437-4.072-0.437-6.088V237.781h0.873v18.263H47.3V237.781a2.626,2.626,0,0,0,.437-0.435h3.057c0.249,0.248,0,.087.437,0.218v18.48h2.183V244.521a44.627,44.627,0,0,1,.218-6.957,10.245,10.245,0,0,1,3.712,0v18.48h2.4V234.955H44.026a11.03,11.03,0,0,1-.218-3.262c1.272-.463,3.595-0.217,5.24-0.217H60.183V229.3H50.14a40.961,40.961,0,0,1-6.332-.218V226.04c1.233-.631,3.368-0.435,5.24-0.435H60.183v-2.174H44.026a11.02,11.02,0,0,1-.218-3.261c1.272-.464,3.595-0.218,5.24-0.218H60.183v-2.391H44.026a11.023,11.023,0,0,1-.218-3.261c1.272-.464,3.595-0.218,5.24-0.218H60.183v-2.174H44.245v-0.87Zm90.174,7.393a2.794,2.794,0,0,0-.436,1.739,2.237,2.237,0,0,0,1.528.652c0.576-.7.817-0.373,0.873-1.739a1.47,1.47,0,0,1-.655-0.652h-1.31ZM297.3,219.083v25.438h11.572a43.814,43.814,0,0,1,6.769.218c-0.031,1.548-.377,1.281-0.873,2.174l-0.219.869-0.436.218-0.219.87-0.436.217-0.219.87h-0.218v6.522h3.93v-37.4H297.3Zm1.747,2.826a23.138,23.138,0,0,1,3.712-.217c0.547,1.474.23,4.223,0.218,6.088a12.873,12.873,0,0,1-3.712.217C298.719,226.523,299.037,223.774,299.048,221.909ZM308.873,228h-3.711c-0.528-1.419-.23-4.064-0.219-5.87a2.654,2.654,0,0,0,.437-0.435h3.275c0.073,0.217.146,0.435,0.218,0.652C309.493,223.021,308.972,227.116,308.873,228Zm2.184,0a25.2,25.2,0,0,1,0-6.088,12.007,12.007,0,0,1,3.493-.217c0.692,1.324.453,4.084,0.437,6.088A13.731,13.731,0,0,1,311.057,228Zm-11.136-5.435v4.783h2.4v-4.783h-2.4Zm5.9,0v4.783h2.4v-4.783h-2.4Zm5.895,0v4.783h2.4v-4.783h-2.4ZM211.493,223h19.869a15.173,15.173,0,0,1,.219,4.349c-1.548.563-4.389,0.217-6.332,0.217H211.493a3.164,3.164,0,0,0-.436-0.435v-3.7A2.353,2.353,0,0,0,211.493,223Zm0.437,0.87v2.827h19v-2.827h-19Zm-18.34,3.479v0.217h-0.656v0.218a1.412,1.412,0,0,0-.436,1.3,1.68,1.68,0,0,1,.436.652l1.092,0.218v-0.218c0.89-.2.91-0.637,0.874-1.739A4.007,4.007,0,0,0,193.59,227.345Zm173.362,0c-0.375.464-.444,0.123-0.655,0.869-0.462.509,0.043,1,.437,1.305v0.217h1.31A2.8,2.8,0,0,0,368.48,228a1.47,1.47,0,0,1-.655-0.652h-0.873Zm-31.223,1.739v51.964H355.38V229.084H335.729Zm-123.8.435v51.529h10.917v-4.566h-9.388a10.163,10.163,0,0,1-.219-3.044,12.491,12.491,0,0,1,3.494-.217h6.113v-2.174h-9.388A10.163,10.163,0,0,1,213.24,268c1.806-.929,6.94-0.45,9.607-0.435v-1.957h-9.17a2.7,2.7,0,0,0-.437-0.435V262.35a12.45,12.45,0,0,1,3.494-.218h6.113a3.384,3.384,0,0,0,.218-1.3h0.219v-0.87h-9.825a10.163,10.163,0,0,1-.219-3.044c1.1-.565,2.665-0.435,4.367-0.435h8.734a4.84,4.84,0,0,1,2.62-.869v-1.087H213.677a2.656,2.656,0,0,0-.437-0.435v-2.827c1.218-.444,3.436-0.217,5.022-0.217h10.7V248.87h-15.5a10.163,10.163,0,0,1-.219-3.044l0.655-.218c0.607-.531,2.893-0.217,3.93-0.217h11.136v-1.957h-9.607a39.608,39.608,0,0,1-6.114-.217v-3.044a39.981,39.981,0,0,1,6.114-.218h9.607v-2.174h-15.5a10.163,10.163,0,0,1-.219-3.044l0.655-.217c0.607-.531,2.893-0.218,3.93-0.218h11.136v-1.956H213.677v-0.87H223.5a39.608,39.608,0,0,1,6.114.217v3.262c-1.218.443-3.436,0.217-5.022,0.217h-10.48v1.957H229.4a11.872,11.872,0,0,1,.219,3.479,40.116,40.116,0,0,1-6.114.217h-9.388v1.739H223.5a39.477,39.477,0,0,1,6.114.218v3.261c-1.218.444-3.436,0.217-5.022,0.217h-10.48v1.957H229.4a11.024,11.024,0,0,1,.219,3.262c-1.218.443-3.436,0.217-5.022,0.217h-10.48v1.957H229.4a5.829,5.829,0,0,1,.219,1.957h1.091V229.519H211.93Zm87.336,0.435h3.494c0.547,1.474.23,4.223,0.218,6.088a12.873,12.873,0,0,1-3.712.217A13.746,13.746,0,0,1,299.266,229.954Zm5.9,0h3.493c0.073,0.217.146,0.435,0.218,0.652,0.566,0.615.156,4.652,0,5.436a12.869,12.869,0,0,1-3.711.217A20.761,20.761,0,0,1,305.162,229.954Zm9.607,0a20.793,20.793,0,0,1,0,6.3h-3.494c-0.073-.217-0.145-0.435-0.218-0.652-0.566-.615-0.156-4.652,0-5.436A12.873,12.873,0,0,1,314.769,229.954Zm-14.848.652v5h2.184c0.428-1.148.229-3.272,0.218-4.783h-0.218v-0.218h-2.184Zm5.9,0v5h2.4v-5h-2.4Zm5.895,0v5h2.4v-5h-2.4Zm40.174,1.087h0.655v0.218c0.374,0.418.218,1.624,0.219,2.391v6.306c-1.049.546-2.5,0.452-4.149,0.434-0.6-1.634-.228-6.285-0.218-8.479h-2.62a51.484,51.484,0,0,1-.218,8.479h-3.712c-0.605-1.634-.229-6.285-0.219-8.479H339v10.654h13.537a10.115,10.115,0,0,1,0,3.7c-1.108.4-3.117,0.217-4.585,0.217h-9.388v2.827h13.755c0.532,1.011.455,2.318,0.437,3.913-1.169.6-3.016,0.435-4.8,0.435h-9.388v2.609h8.3a36.6,36.6,0,0,1,5.676.218,22.913,22.913,0,0,1,.219,3.7c-1.169.6-3.016,0.435-4.8,0.435h-9.388v2.609c1.108,0.4,3.117.217,4.585,0.217h9.388a42.7,42.7,0,0,1,.219,6.74,42.942,42.942,0,0,1-.219,6.74,12.053,12.053,0,0,1-3.93,0,12.346,12.346,0,0,1-.218-3.479V268h-2.62v9.349c-1.016.529-2.329,0.452-3.93,0.435-0.948-1.828-.452-7.088-0.437-9.784h-2.62a12.3,12.3,0,0,0-.218,3.478v6.088h-0.655v-10a13.728,13.728,0,0,1,3.93-.218c0.933,1.8.452,6.911,0.436,9.567h2.839V267.35a12.873,12.873,0,0,1,3.712-.217c0.947,1.827.452,7.088,0.436,9.784h2.62V264.741H338.131a13.541,13.541,0,0,1-.218-3.913c1.108-.4,3.117-0.218,4.585-0.218h9.388v-2.826H338.131a13.548,13.548,0,0,1-.218-3.914c1.108-.4,3.117-0.217,4.585-0.217h9.388v-3.044H338.131a14.361,14.361,0,0,1-.218-4.131,37.114,37.114,0,0,1,5.677-.218h8.3v-2.391H338.568a13.986,13.986,0,0,1-.219-3.914v-7.827a12.876,12.876,0,0,1,3.712-.217c0.605,1.634.229,6.285,0.218,8.479H344.9v-8.262a14.55,14.55,0,0,1,4.148-.217v8.262a9.42,9.42,0,0,0,2.838.217v-8.7Zm-223.8,1.087c-0.447.733-1.251,1.781,0.219,2.175v0.217h0.873a1.7,1.7,0,0,1,.655-0.435q0.11-.543.218-1.087h-0.218a2.314,2.314,0,0,0-.437-0.87h-1.31Zm-106.55.87v11.089H34.419v0.652H21.537v3.479H32.454v0.652H21.537V253H35.074v0.652H34.856c-0.554.485-2.532,0.217-3.493,0.217H21.537v3.262h5.677V258H21.537v3.262h6.769l0.218-2.175c2.628-.235,5.982-0.215,8.952-0.217V240.608h-2.62l-0.218-.653c-0.487-.542-0.237-5.117-0.218-6.305H21.537Zm139.52,1.305a4.493,4.493,0,0,1-1.529,1.087q-0.108.218-.218,0.434h-0.437l-0.436.653H158l-0.437.652h-0.436l-0.219.435h-0.436l-0.219.435-0.655.217c-0.145.218-.291,0.435-0.436,0.652-0.749.521-1.257,0.468-1.747,1.3h15.939v-0.217a2.125,2.125,0,0,1-.437-0.435H168.48l-0.436-.653h-0.437c-0.073-.145-0.146-0.289-0.218-0.434h-0.437l-0.437-.653h-0.436v-0.217L165.424,238l-0.219-.434h-0.436c-0.146-.218-0.292-0.435-0.437-0.653H163.9l-0.218-.435H163.24c-0.073-.144-0.145-0.289-0.218-0.434h-0.437l-0.218-.435-0.655-.218v-0.217Zm-136.245.652h0.873c0.578,0.969,1.787,1.266,1.965,2.609-0.988.578-1.421,1.85-2.62,2.174-0.323-.526-2.443-2.161-2.183-2.826l0.437-.218Zm5.459,0h0.873c0.629,1.049,1.866,1.247,1.965,2.826l-2.183,1.957a0.379,0.379,0,0,1-.218-0.217c-0.5-.118-2.667-1.942-2.4-2.609l0.437-.218Zm-5.24.869c-0.112.167-1.31,1.305-1.31,1.305l1.31,1.522c0.421,0.113.294-.121,0.437-0.217a3.689,3.689,0,0,0,1.31-1.305C26.089,237.378,25.9,236.71,25.031,236.476Zm5.459,0L29.179,238l1.528,1.305v0.217a4.343,4.343,0,0,0,1.528-1.739C31.548,237.378,31.358,236.71,30.489,236.476Zm39.738,23.265v-7.175a0.384,0.384,0,0,0,.218-0.218H71.1v7.393h2.839a0.382,0.382,0,0,1,.218-0.218v-7.175h0.655v28.7h1.747V261.263a1.82,1.82,0,0,1,1.31-.435v-8.48h0.655v8.48h3.057c-0.02-2.174-.38-6.867.218-8.48,0.439,0.125.189-.026,0.437,0.218,0.35,0.392.218,1.445,0.218,2.174v6.088h2.838c-0.02-2.174-.38-6.867.218-8.48,0.439,0.125.189-.026,0.437,0.218,0.35,0.392.218,1.445,0.218,2.174v6.088h3.057v-8.48h0.655v8.48h3.057v-8.48H93.59v8.48h3.057v-8.48H97.3v8.48h3.275V250.609a12.866,12.866,0,0,0-3.711-.218c-0.568-1.1-.437-2.653-0.437-4.348v-8.262c-7.507.085-16.679,0-24.891,0a15.679,15.679,0,0,0-.218,4.348v8.48a0.379,0.379,0,0,0-.218.217c-0.86-.026-2.584-0.211-3.057.218-0.373.418-.218,1.625-0.218,2.391v6.088A7.657,7.657,0,0,0,70.227,259.741Zm229.039-21.96h3.494c0.547,1.474.23,4.223,0.218,6.088a12.873,12.873,0,0,1-3.712.217A13.746,13.746,0,0,1,299.266,237.781Zm5.9,6.305a37.776,37.776,0,0,1-.219-5.87,2.654,2.654,0,0,0,.437-0.435h3.275c0.073,0.217.146,0.435,0.218,0.652,0.566,0.615.156,4.652,0,5.436A12.869,12.869,0,0,1,305.162,244.086Zm9.607,0h-3.494c-0.073-.217-0.145-0.435-0.218-0.652-0.566-.615-0.156-4.651,0-5.436a12.042,12.042,0,0,1,3.493-.217c0.669,1.281.453,3.918,0.437,5.87C314.738,243.9,314.9,243.652,314.769,244.086Zm20.305,10a21.117,21.117,0,0,1-3.712-.218v-6.305H329.4v6.305a12.04,12.04,0,0,1-3.493.218c-0.634-1.228-.437-3.354-0.437-5.218V238.216H323.5c-0.446,1.212-.218,3.421-0.218,5V253.87a12.049,12.049,0,0,1-3.494.218c-0.465-1.267-.218-3.58-0.218-5.218V238.216h-1.747c-0.525,1.431-.218,4.054-0.218,5.87v12.176c1.327,0.483,3.754.217,5.459,0.217h11.79a0.382,0.382,0,0,1,.218-0.217v-2.174Zm-14.847-15.872v15h2.4v-15h-2.4Zm6.114,0v15h2.4q-0.108-7.5-.218-15h-2.183Zm-26.42.435v4.783h2.4v-4.783h-2.4Zm5.9,0v4.783h2.4v-4.783h-2.4Zm5.895,0v4.783h2.4v-4.783h-2.4ZM73.721,240.825H94.026c0.582,1.109.454,2.844,0.437,4.566l-0.655.217c-0.542.473-4.135,0.218-5.24,0.218H74.157v3.044H94.026v0.652H73.5a14.368,14.368,0,0,1-.218-4.131c0.248-.248.087,0,0.218-0.435H93.59V241.7H73.721v-0.87Zm97.38,0.87a34.383,34.383,0,0,0-5.458-.218h-8.734c-1.055,0-4.278-.24-4.8.218a2.323,2.323,0,0,0-.874.434v0.218a2.636,2.636,0,0,1,1.31.87H169.79C170.205,242.547,170.861,242.563,171.1,241.7Zm211.572,0.434v3.479h5.9v-3.479h-5.9ZM151.013,281.048h20.524V242.782h-0.218a3.571,3.571,0,0,1-1.31.869l-0.437.653h-0.437l-0.436.652h-0.437l-0.437.652h-0.436l-0.437.652h-0.437l-0.436.653h-0.437l-0.437.652h-0.436L164.55,248h-0.436l-0.437.652H163.24q-0.218.327-.437,0.652a5.365,5.365,0,0,0-1.31.87c-0.438-.125-0.188.026-0.436-0.217l-0.655-.218v-0.217l-0.655-.218-0.219-.434h-0.436l-0.219-.435h-0.436L158,247.782h-0.437l-0.218-.434h-0.437l-0.436-.653h-0.437q-0.109-.217-0.218-0.435H155.38l-0.437-.652h-0.436l-0.219-.435h-0.436q-0.219-.326-0.437-0.652h-0.437l-0.218-.435h-0.437l-0.437-.652H151.45a2.385,2.385,0,0,0-.437-0.435v38.049ZM9.31,243.869a3.3,3.3,0,0,0-.437,1.957l0.655,0.217v0.217H10.62a2.981,2.981,0,0,0,.655-1.521,3.012,3.012,0,0,1-.655-0.87H9.31Zm144.76,0.217a4.382,4.382,0,0,0,1.528,1.087l0.219,0.435h0.436l0.437,0.652h0.437q0.108,0.218.218,0.435h0.437l0.436,0.653h0.437l0.218,0.434h0.437l0.437,0.653h0.436l0.219,0.435h0.436v0.217l0.655,0.217a3.8,3.8,0,0,1,1.529-1.087l0.437-.652H163.9l0.437-.652h0.437l0.436-.653h0.437l0.437-.652h0.436l0.219-.435,0.655-.217v-0.217a1.745,1.745,0,0,1,.873-0.435v-0.218H154.07Zm160.7,1.3H278.524v0.217c0.835,0.552,1.18,1.766,1.747,2.609l0.436,0.218v0.435q0.328,0.216.655,0.434v0.218h31q0.217-.327.437-0.652h0.218q0.217-.653.437-1.305l0.436-.217v-0.435A4.5,4.5,0,0,0,314.769,245.391Zm-76.638.869v9.784h2.4a0.312,0.312,0,0,0,.436.218v-0.218c0.474-.526.237-4.731,0.219-5.87h0.655v6.088h3.275v-6.088h0.873v6.3h3.057v-6.3h0.873v6.3c0.96-.085,2.051-0.215,3.276-0.217v-6.088h0.655v5.87l3.275-.217v-5.653H258v5.436l2.62-.218q-0.109-4.565-.218-9.132H238.131Zm138.21,0.218v9.566h14.847v-9.566H376.341Zm-44.105,1.087v5.653h2.838v-5.653h-2.838Zm-203.057,1.087v3.261h6.55v0.653h-0.218c-0.545.485-5.139,0.235-6.332,0.217v3.261h6.332v0.218h0.218v0.652h-6.55v3.479h6.55v0.652h-6.55v3.479h6.55v0.87h-6.55v3.261h6.55v0.652h-0.218c-0.545.485-5.139,0.236-6.332,0.218v3.261h6.332V273h0.218v0.653h-6.55v3.478h6.55v0.653h-6.55v3.261H150.14v-3.261h-6.55v-0.653h6.55v-3.478h-6.55v-0.87h6.55v-3.261h-6.332v-0.218H143.59v-0.652h6.55v-3.261h-6.55v-0.87h6.55v-3.479h-6.55v-0.652h6.55v-3.479h-6.55v-0.652h0.218c0.544-.485,5.139-0.236,6.332-0.218v-3.261h-6.332v-0.217H143.59v-0.653h6.55v-3.261H129.179Zm43.231,0v3.261h6.551v0.87H172.41v3.261h6.551v0.87H172.41v3.479h6.551v0.652H172.41v3.479h6.551v0.87H172.41v3.261h6.551v0.87H172.41v3.261h6.551v0.87H172.41v3.478h6.551v0.653H172.41v3.261h20.961v-3.261h-6.332v-0.653h6.332v-3.478h-6.332v-0.87h6.332v-3.261h-6.332v-0.87h6.332v-3.261h-6.332v-0.87h6.332v-3.479h-6.332v-0.652h6.332v-3.479h-6.332v-0.87h6.332v-3.261h-6.332v-0.87h6.332v-3.261H172.41Zm207.642,0a8.555,8.555,0,0,1,2.4.435,3.407,3.407,0,0,1,.874,1.957h0.218q-0.109.653-.218,1.3h-0.219c-0.222.87-.831,0.953-1.31,1.522l-1.31.218V253.87h-0.873c-0.437-.652-0.244-0.117-0.655-0.435a3.517,3.517,0,0,1-.874-2.826,7.615,7.615,0,0,0,.655-1.087C379.093,249.145,379.714,249.044,380.052,248.652Zm6.551,0a6.834,6.834,0,0,1,2.183.435c0.624,1.073,1.076.99,1.092,2.826h-0.219q-0.108.544-.218,1.088a3.432,3.432,0,0,1-1.965.869v0.218l-1.31-.218v-0.217a1.642,1.642,0,0,1-1.31-1.3c-0.62-.6-0.287-1.224-0.218-2.174,0.582-.385.5-0.867,1.31-1.087V248.87H386.6v-0.218Zm-6.551.87c-0.418.5-.655,0.277-0.873,1.087-1.027,1.019.629,3.223,2.183,2.609,0.792-.313,1.874-1.875,1.092-3.044h-0.218l-0.219-.435h-0.436v-0.217h-1.529Zm6.332,0c-0.418.5-.655,0.277-0.873,1.087-1,1,.911,3.2,2.4,2.609a2.287,2.287,0,0,0,.873-3.044h-0.218l-0.219-.435h-0.436v-0.217h-1.529Zm-104.8.652v30.874h30.567V253.435a11.549,11.549,0,0,1,.219-3.261H281.581ZM156.253,251.7h3.712c0.649,1.77.218,5.787,0.218,8.045v17.828h2.184V251.913a12.873,12.873,0,0,1,3.712-.217c0.648,1.77.218,5.787,0.218,8.045v17.828h2.183V251.913a0.381,0.381,0,0,0,.219-0.217h0.655V278a2.655,2.655,0,0,0-.437.435h-2.838c-0.249-.248,0-0.087-0.437-0.218-0.466-2.6-.218-6.164-0.218-9.131V252.348H163.24v15.22c0,3.52.076,7.481-.218,10.653a9.415,9.415,0,0,1-3.494,0c-0.648-1.77-.218-5.786-0.218-8.044V252.348h-2.4V278a2.64,2.64,0,0,0-.436.435h-2.839c-0.893-1.737-.436-5.566-0.436-8.045V251.913h0.655v25.656h2.183V262.35C156.035,258.83,155.959,254.868,156.253,251.7Zm-14.629.217v0.87h-4.148c-0.073-.217-0.146-0.435-0.218-0.652A15.4,15.4,0,0,1,141.624,251.913Zm39.083,0h4.367v0.653h-0.218c-0.6.544-3.1,0.239-4.149,0.217v-0.87Zm103.276,0h4.585c0.428,1.148.229,3.272,0.218,4.784-1.152.426-3.285,0.228-4.8,0.217A10.333,10.333,0,0,1,283.983,251.913Zm15.5,0.218V256.7c-1.775.65-7.01,0.227-9.389,0.217-0.428-1.147-.229-3.271-0.218-4.783A32.7,32.7,0,0,1,299.485,252.131Zm1.528,4.783a28.973,28.973,0,0,1-.218-4.566c1.777-.914,6.762-0.45,9.388-0.435,0.428,1.148.23,3.272,0.219,4.784C308.627,257.347,303.392,256.924,301.013,256.914Zm-16.594-4.131v3.479h3.712v-3.479h-3.712Zm6.332,0v3.479h7.86v-3.479h-7.86Zm10.917,0v3.479h8.079v-3.479h-8.079ZM194.245,253.87v27.178h16.812V253.87H194.245Zm-89.957.218v6.74H108V260.61a3.221,3.221,0,0,1-1.747-2.391c1.107-.654,1.558-2.194,3.057-2.392,0.656,1.1,2.2,1.551,2.4,3.044-0.269.212-.43,0.7-0.655,0.87H110.62l-0.873,1.087a24.1,24.1,0,0,1,4.148.217,21.409,21.409,0,0,1,.219,3.479h8.733v0.87h-8.733v3.261h8.733v0.87h-8.733v3.261h8.733v0.87h-8.733v3.478h8.733v0.653h-8.733v3.261h14.192v-26.96H104.288Zm94.978,1.3H199.7l2.183,2.392h0.219v0.869c-1.107.654-1.558,2.194-3.057,2.392-0.705-1.178-2.291-1.532-2.4-3.261Zm6.332,0a5,5,0,0,1,3.057,3.261l-2.62,2.392c-1.081-.262-1.726-1.465-2.4-2.174-0.2-.212-0.822-0.321-0.655-0.87l0.437-.217Zm-90.611.435h0.873c0.656,1.1,2.2,1.551,2.4,3.044-1.184.7-1.539,2.281-3.275,2.392-0.34-.556-2.663-2.373-2.4-3.044l0.437-.218Zm6.55,0h0.655c0.705,1.179,2.291,1.532,2.4,3.261-1.211.72-1.373,2.122-3.275,2.175q-0.873-.979-1.747-1.957l-0.437-.218C118.748,258.173,121.162,256.454,121.537,255.827Zm20.087,0.217v0.87h-4.366v-0.652h0.218C138.079,255.718,140.576,256.023,141.624,256.044Zm39.083,0h4.149v0.218h0.218v0.652h-4.367v-0.87Zm44.76,1.74a1.736,1.736,0,0,1-.436.869h-0.219v0.435l-0.436.218v0.652h-0.219v0.435h-0.218v0.87h-0.218v1.956H223.5a0.385,0.385,0,0,0,.219.435v17.394h47.6c0-2.186-.788-3.184-1.529-4.566q-0.108-.435-0.218-0.87h-0.218v-0.434h-0.219v-0.653h-0.218v-0.869H268.7v-1.305H268.48v-2.609H268.7V268.22c0.31-1.083.566-2.613,0.873-3.7v-4.566a13.279,13.279,0,0,1-.655-1.522l-1.092-.87v-0.217h-0.436v-0.217l-0.874-.218V256.7H265.86v-0.218h-0.873v-0.217l-4.149-.218v0.218h-2.4a32.865,32.865,0,0,1-8.3.87c-2.4,0-5.633.34-7.642-.218h-3.712V256.7h-3.275c-1.062-.294-2.947.115-4.149-0.218a4.811,4.811,0,0,0-2.183-.217v0.217l-1.965.218v0.217l-0.873.218v0.217A1.8,1.8,0,0,1,225.467,257.784Zm-26.2-1.522c-0.493.834-1.466,1.144-1.746,2.174a5.315,5.315,0,0,1,1.746,1.739,0.381,0.381,0,0,0,.219-0.217A4.223,4.223,0,0,0,201.231,258Zm6.551,0c-0.494.834-1.467,1.144-1.747,2.174a5.318,5.318,0,0,1,1.747,1.739,0.382,0.382,0,0,0,.218-0.217A4.231,4.231,0,0,0,207.782,258Zm-96.944.435c-0.493.834-1.466,1.144-1.746,2.174h0.218a3.153,3.153,0,0,0,1.747,1.522c0.5-.816,1.46-0.895,1.746-1.957Zm6.332,0-1.746,1.956h0.218l1.528,1.74h0.437q0.873-.978,1.747-1.957C116.551,257.945,116.24,256.976,115.205,256.7Zm6.55,0c-0.493.834-1.466,1.144-1.746,2.174h0.218a2.858,2.858,0,0,0,1.965,1.522c0.449-.76,1.271-1.009,1.529-1.957Zm242.14,9.784h27.293v-9.567c-1.163-.424-3.277-0.217-4.8-0.217H376.341c-0.512.451-2.367,0.238-3.275,0.217h-0.874V256.7h-8.078a12.3,12.3,0,0,0-.219,3.478v6.306Zm-50.873-9.349v23.916h21.834v-3.261H318.917v-0.653h15.939a25.6,25.6,0,0,1,.218-3.044c-1.272-.463-3.6-0.217-5.24-0.217H318.917v-0.652h16.157v-3.044H321.755v-0.87h13.319v-2.826c-1.437-.524-4.071-0.218-5.9-0.218H316.515v-0.652h18.559V262.35H319.79V261.7h0.219c0.607-.531,2.892-0.217,3.93-0.217h11.135v-4.348H313.022Zm-98.908.217v1.957h9.607l1.091-1.957h-10.7Zm69.869,0.87h3.275a11.9,11.9,0,0,1,.218,3.478,12.007,12.007,0,0,1-3.493.218A6.972,6.972,0,0,1,283.983,258.219Zm11.135,0.217V261.7c-1.207.446-3.445,0.229-5.022,0.218a2.617,2.617,0,0,0-.437-0.435v-2.827c1.178-.611,3.21-0.451,5.022-0.434C294.93,258.466,294.682,258.305,295.118,258.436ZM306.69,261.7v-3.044l0.655-.217c0.542-.513,2.022-0.125,2.62,0a10.133,10.133,0,0,1,.218,3.044,5.369,5.369,0,0,1-3.056.435C306.878,261.667,307.126,261.828,306.69,261.7Zm-1.528,4.784H297.3c-0.63-1.7-.229-5.641-0.218-7.828,1.753-.643,5.832-0.228,8.079-0.217,0.614,1.66.229,5.474,0.218,7.61C305.131,266.294,305.293,266.047,305.162,266.481Zm-18.341-5.218v-2.175a6.794,6.794,0,0,0-2.183-.217,6.677,6.677,0,0,0-.219,2.174A7.657,7.657,0,0,0,286.821,261.263Zm83.188-1.74q0.108,0.327.218,0.652h0.218l0.219,1.957h-0.219v0.653l-1.091.869a3.013,3.013,0,0,1-2.184.435c-0.585-.647-1.246-0.454-1.528-1.522-0.434-.41-0.011-0.105-0.218-0.652-0.6-1.572.785-2.184,1.528-3.044h1.965v0.217h0.437v0.218Zm3.493-.652a8.038,8.038,0,0,1,2.62.435,12.268,12.268,0,0,1,.874,1.3,2.847,2.847,0,0,1-3.494,3.479c-0.807-.3-2.362-1.86-1.747-3.479h0.219v-0.435h0.218v-0.434h0.218l0.219-.435h0.437v-0.218H373.5v-0.217Zm5.24,0.652,0.655-.217v-0.218h0.437v-0.217a4.929,4.929,0,0,1,2.4.217l1.092,1.3c0.06,0.88.333,1.6-.219,2.174a2.754,2.754,0,0,1-3.712,1.305q-0.108-.218-0.218-0.435l-0.873-.652-0.219-1.957h0.219v-0.653h0.218Q378.633,259.85,378.742,259.523Zm7.424-.652a3.484,3.484,0,0,1,1.965.217c2.157,0.478,2.226,3.575.437,4.566a3.013,3.013,0,0,1-2.184.435c-0.585-.647-1.246-0.454-1.528-1.522-0.434-.41-0.011-0.105-0.218-0.652C384.042,260.343,385.423,259.731,386.166,258.871Zm-160.044.652c0.641-.137,1.118-0.507,1.529-0.217a1.019,1.019,0,0,1,1.091.869h0.219v1.305c-0.971.577-.656,0.878-2.4,0.87a3.059,3.059,0,0,1-.873-1.957A1.206,1.206,0,0,0,226.122,259.523Zm5.24-.435c1.435,0.221,1.811.657,1.747,2.392-0.248.248-.087,0-0.218,0.435l-0.655.217v0.218c-0.758.454-1.776-.411-1.965-0.653h-0.219v-0.869h-0.218a4.506,4.506,0,0,0,.218-0.87l0.655-.435v-0.217h0.655v-0.218Zm4.149,0a1.771,1.771,0,0,1,1.747,1.3c0.381,0.433-.005,1.034-0.219,1.522-0.877.436-2.26,0.9-2.62-.435H234.2v-1.305h0.218v-0.434l0.437-.218v-0.217h0.655v-0.218Zm4.148,0a1.66,1.66,0,0,1,1.747,1.087c0.712,0.727-.218,1.636-0.655,1.957v0.218h-1.528c-0.729-1.208-1-.806-0.655-2.609A2.946,2.946,0,0,0,239.659,259.088Zm4.367,0,1.092,0.218v0.217l0.437,0.218v0.434h0.218a1.44,1.44,0,0,1-.873,1.957v0.218h-1.31a6.121,6.121,0,0,1-.656-0.653c-0.43-.406-0.019-0.094-0.218-0.652-0.278-.78-0.116-0.753.437-1.3l0.218-.435h0.655v-0.218Zm4.149,0c1.434,0.221,1.81.657,1.746,2.392-0.248.248-.087,0-0.218,0.435l-0.655.217a1.749,1.749,0,0,1-1.965-.217V261.48h-0.218v-1.522l0.655-.435v-0.217h0.655v-0.218Zm5.677,0.435a3.537,3.537,0,0,1,.218,2.174,2.678,2.678,0,0,1-2.184.653c-0.476-.794-0.867-0.759-0.873-2.175a6.208,6.208,0,0,1,.655-0.652v-0.217h0.655v-0.218Zm1.746,0c1.34-.282,1.1-0.526,2.4,0a3.865,3.865,0,0,1,.437,1.957c-0.971.577-.656,0.878-2.4,0.87a3.059,3.059,0,0,1-.873-1.957A1.206,1.206,0,0,0,255.6,259.523Zm5.24-.435c1.435,0.221,1.811.657,1.747,2.392-0.248.248-.087,0-0.218,0.435l-0.655.217v0.218c-0.762.452-1.774-.409-1.965-0.653h-0.219v-1.739l0.655-.435v-0.217h0.655v-0.218Zm4.149,0a1.771,1.771,0,0,1,1.747,1.3c0.381,0.433,0,1.034-.219,1.522-0.877.436-2.26,0.9-2.62-.435h-0.218v-1.305H263.9v-0.434l0.437-.218v-0.217h0.655v-0.218Zm25.546,0v1.957h3.93v-1.957h-3.93Zm7.2,0v6.523c1.645,0.605,4.717.229,6.769,0.217v-6.74h-6.769Zm9.607,0v1.957h1.965v-1.957h-1.965Zm60.262,0.435v0.218h-0.655a3.262,3.262,0,0,0-.655,1.087c-0.928.924,0.352,2.383,1.528,2.391,0.127,0.091.032,0.356,0.437,0.218v-0.218c1.382-.126,1.593-1.029,1.528-2.609l-1.31-1.087h-0.873Zm6.332,0a7.075,7.075,0,0,0-1.092.87h-0.218l-0.219,1.522c0.546,0.488.21,0.834,1.092,1.087,0.66,0.683,1.327.19,2.184,0,0.193-.407.874-1.269,0.655-1.957h-0.219c-0.073-.29-0.145-0.58-0.218-0.87A4.209,4.209,0,0,0,373.939,259.523Zm5.458,0.435v0.435l-0.436.217v1.74L379.834,263v0.217h0.655v0.218l1.528-.435a2.825,2.825,0,0,0,.655-2.174,6.586,6.586,0,0,0-.873-0.87c-0.41-.433-0.1-0.011-0.655-0.217C380.27,259.413,380.278,259.748,379.4,259.958Zm7.424-.435v0.218h-0.655a3.262,3.262,0,0,0-.655,1.087c-0.928.924,0.352,2.383,1.528,2.391,0.127,0.091.032,0.356,0.437,0.218v-0.218c1.382-.126,1.593-1.029,1.528-2.609l-1.31-1.087h-0.873Zm-357.642.218v5H49.7v-5H29.179Zm197.38,0.434v1.088a1.98,1.98,0,0,0,1.092.434,2.526,2.526,0,0,0,.436-0.869h0.219V260.61h-0.219c-0.18-.695-0.257-0.631-1.091-0.652C226.747,260.206,227,260.045,226.559,260.175Zm5.677,1.305q0.11-.543.218-1.087a0.976,0.976,0,0,0-1.747.87,1.63,1.63,0,0,1,.655.434Zm2.838,0,0.874,0.217V261.48c0.7-.18.633-0.256,0.655-1.087a1.822,1.822,0,0,0-1.31-.435,1.632,1.632,0,0,1-.437.652C234.929,260.9,235,261.19,235.074,261.48Zm4.367-1.522a3.39,3.39,0,0,0-.218,1.3,1.973,1.973,0,0,0,1.091.434,1.894,1.894,0,0,0,.437-1.522h-0.218v-0.217h-1.092Zm5.459,1.522q0.108-.435.218-0.87H244.9c-0.181-.695-0.258-0.631-1.092-0.652a1.808,1.808,0,0,0-.437,1.3,1.63,1.63,0,0,1,.655.434Zm2.838,0,0.873,0.217V261.48c0.7-.18.634-0.256,0.655-1.087a1.819,1.819,0,0,0-1.31-.435,1.966,1.966,0,0,0-.436,1.087C247.768,261.293,247.607,261.046,247.738,261.48Zm4.367-1.522-0.437.87h0.218c0.162,0.7.3,0.791,1.092,0.869a1.807,1.807,0,0,0,.437-1.3,0.87,0.87,0,0,1-.437-0.435h-0.873Zm4.367,0a1.8,1.8,0,0,0-.437,1.3,1.98,1.98,0,0,0,1.092.434,2.526,2.526,0,0,0,.436-0.869h0.219V260.61h-0.219c-0.072-.217-0.145-0.435-0.218-0.652h-0.873Zm5.24,1.522q0.11-.543.218-1.087a0.976,0.976,0,0,0-1.747.87,1.63,1.63,0,0,1,.655.434Zm2.838,0,0.874,0.217V261.48c0.7-.18.633-0.256,0.655-1.087a1.822,1.822,0,0,0-1.31-.435,1.632,1.632,0,0,1-.437.652C264.4,260.9,264.477,261.19,264.55,261.48ZM63.9,260.393v20.655H73.939V260.393H63.9Zm73.363,0h4.366v0.652h-4.366v-0.652Zm43.449,0h4.367v0.652h-4.367v-0.652Zm89.738,0.652a19.472,19.472,0,0,1-.655,5.436v1.3h-0.218a20.352,20.352,0,0,0-.218,5.218h0.218v0.87h0.218v0.652h0.219v0.653h0.218q0.11,0.433.218,0.869h0.219V276.7h0.218v0.434H271.1a8.568,8.568,0,0,1,1.092,3.914h8.515v-3.914h-8.3v-0.869h8.3v-3.044h-7.2v-0.87h7.2v-3.044h-8.515v-0.87h8.515v-3.043h-6.113v-0.653h6.113v-3.7H270.445ZM77.214,261.7v19.351H113.24V261.7H77.214Zm-55.677.435v3.479h3.057c0.566-1.254,1.979-.928,3.712-0.87v-2.609H21.537Zm48.908,4.349H70.009l-0.218.435a4.718,4.718,0,0,1-2.4-.218l-0.437-.652H66.734c-0.623-.977-0.211-1.768,0-2.827a3.9,3.9,0,0,1,2.62-.869v0.217h0.655l0.655,0.87a2.613,2.613,0,0,1,.437,1.957A1.8,1.8,0,0,0,70.445,266.481Zm143.669-3.7v1.956h8.733v-1.956h-8.733Zm77.292,3.7a18.165,18.165,0,0,1-.218-3.044,2.64,2.64,0,0,0,.436-0.435h2.839a11.018,11.018,0,0,1,.218,3.261A11.178,11.178,0,0,1,291.406,266.481Zm18.777-3.262v3.044a11.178,11.178,0,0,1-3.275.218,11.061,11.061,0,0,1-.218-3.262,10.32,10.32,0,0,1,3.057-.217C310,263.25,309.747,263.089,310.183,263.219ZM70.009,265.828a9.958,9.958,0,0,0,.218-1.956,2.677,2.677,0,0,0-2.183-.653c-0.249.248,0,.087-0.437,0.218l-0.218.652c-0.607.608,0.041,1.426,0.437,1.739v0.218h0.437v0.217a1.646,1.646,0,0,0,1.31-.217v-0.218h0.437Zm156.113,0.435a3.528,3.528,0,0,1-.218-2.174,2.857,2.857,0,0,1,2.183-.652c0.477,0.794.867,0.759,0.874,2.174a6.114,6.114,0,0,1-.655.652v0.218L227,266.7A1.216,1.216,0,0,0,226.122,266.263Zm4.8-2.826a7.446,7.446,0,0,1,1.746.217,4.408,4.408,0,0,1,.437,2.174,3.8,3.8,0,0,1-1.965.87c-0.249-.247,0-0.086-0.437-0.217a2.1,2.1,0,0,1-.655-1.305h-0.218q0.219-.652.437-1.3A1.656,1.656,0,0,0,230.926,263.437Zm4.148,0c1.044-.03,1.574.044,1.965,0.652,0.923,0.831-.052,2.369-0.873,2.609a3.069,3.069,0,0,1-1.528-.435c-0.162-.341-0.8-1.218-0.437-1.957h0.218Q234.748,263.873,235.074,263.437Zm4.149,0a7.446,7.446,0,0,1,1.746.217,2.523,2.523,0,0,1,.437.87h0.218a2.9,2.9,0,0,1-.218,1.522,4.628,4.628,0,0,1-1.747.652v-0.217H239v-0.218h-0.218a3.4,3.4,0,0,1-.437-1.739A4.908,4.908,0,0,0,239.223,263.437Zm4.367,0h1.31c0.476,0.794.867,0.759,0.873,2.174a6.114,6.114,0,0,1-.655.652c-0.9.984-2.963-.263-2.62-1.522A3.461,3.461,0,0,1,243.59,263.437Zm4.148,0a7.462,7.462,0,0,1,1.747.217,4.42,4.42,0,0,1,.436,2.174,3.085,3.085,0,0,1-1.965.87c-0.853-.991-1.117-0.35-1.091-2.392,0.248-.247.087,0,0.218-0.434A1.649,1.649,0,0,0,247.738,263.437Zm6.114,2.826c-1.236.285-1.142,0.517-2.4,0a3.86,3.86,0,0,1-.437-1.957c0.8-.474.762-0.863,2.184-0.869,0.623,0.735,1.031.528,1.091,1.957A1.2,1.2,0,0,0,253.852,266.263Zm1.746,0a3.528,3.528,0,0,1-.218-2.174,2.857,2.857,0,0,1,2.183-.652c0.477,0.794.867,0.759,0.874,2.174a6.114,6.114,0,0,1-.655.652v0.218l-1.31.217A1.216,1.216,0,0,0,255.6,266.263Zm4.8-2.826a7.446,7.446,0,0,1,1.746.217,4.408,4.408,0,0,1,.437,2.174,3.085,3.085,0,0,1-1.965.87c-0.853-.991-1.117-0.35-1.092-2.392,0.249-.247.087,0,0.219-0.434A1.656,1.656,0,0,0,260.4,263.437Zm4.148,0c1.044-.03,1.574.044,1.965,0.652,0.923,0.831-.052,2.369-0.873,2.609a3.069,3.069,0,0,1-1.528-.435c-0.162-.341-0.795-1.218-0.437-1.957H263.9Q264.223,263.873,264.55,263.437Zm24.673,5.218a17.844,17.844,0,0,1-5.459,0v-5c1.261-.466,3.6-0.228,5.24-0.217C289.472,264.693,289.234,267.026,289.223,268.655ZM84.638,263.872a19.985,19.985,0,0,1,0,6.087,12.055,12.055,0,0,1-3.93,0,34.384,34.384,0,0,1,0-6.087A12.055,12.055,0,0,1,84.638,263.872Zm6.332,0v6.087a12.054,12.054,0,0,1-3.93,0c-0.528-1.419-.23-4.064-0.218-5.87a2.643,2.643,0,0,0,.437-0.435h3.275C90.782,263.9,90.534,263.741,90.969,263.872Zm2.62-.218h3.275c0.691,1.325.453,4.085,0.437,6.088a2.645,2.645,0,0,0-.437.435H93.59c-0.6-1.1-.445-2.849-0.437-4.566v-1.522A2.354,2.354,0,0,0,93.59,263.654Zm5.9,6.305v-6.087a23.252,23.252,0,0,1,3.712-.218c0.691,1.325.453,4.085,0.436,6.088l-0.655.217C102.409,270.49,100.129,270.091,99.485,269.959Zm6.332,0v-6.087a12.053,12.053,0,0,1,3.93,0c0.527,1.419.229,4.064,0.218,5.87l-0.655.217C108.741,270.49,106.461,270.091,105.817,269.959Zm94.323-6.087v15h2.183V264.089l0.655-.217c0.555-.521,2.441-0.128,3.057,0a38.157,38.157,0,0,1,.218,5.87v9.132h1.965V264.089h0.655v15.437H205.6c-0.446-1.212-.218-3.422-0.218-5v-10H203.2v14.785a12.052,12.052,0,0,1-3.494.217c-0.446-1.212-.218-3.422-0.218-5v-10H197.3v14.785h-0.655v-15.22a5.374,5.374,0,0,1,3.057-.435C199.952,263.9,199.7,263.741,200.14,263.872Zm91.921,0v1.956h1.965v-1.956h-1.965Zm15.284,0v1.739a5.881,5.881,0,0,0,1.965.217v-1.956h-1.965Zm-80.131.217c-0.583.71-.636,0.084-0.655,1.522a3.436,3.436,0,0,0,1.31.217q0.109-.325.218-0.652h0.219v-0.217h-0.219A0.873,0.873,0,0,0,227.214,264.089Zm5.022,0.217-0.874-.217v0.217c-0.7.18-.633,0.257-0.655,1.088a1.826,1.826,0,0,0,1.31.434,1.955,1.955,0,0,0,.437-1.087C232.206,264.494,232.367,264.741,232.236,264.306Zm2.838,0q-0.11.545-.218,1.088a0.976,0.976,0,0,0,1.747-.87,1.622,1.622,0,0,1-.655-0.435Zm4.8-.217c-0.584.71-.637,0.084-0.655,1.522a3.432,3.432,0,0,0,1.31.217,3.381,3.381,0,0,0,.218-1.3Zm4.148,0c-0.5.605-.594,0.127-0.655,1.305a1.826,1.826,0,0,0,1.31.434,1.629,1.629,0,0,1,.437-0.652v-0.435A3.316,3.316,0,0,0,244.026,264.089Zm3.712,0.217q-0.11.545-.218,1.088a0.975,0.975,0,0,0,1.746-.87,1.635,1.635,0,0,1-.655-0.435Zm5.677,1.305v-1.087a1.622,1.622,0,0,1-.655-0.435c-0.439.125-.189-0.026-0.437,0.217a6.121,6.121,0,0,0-.655.653c0.073,0.217.146,0.435,0.218,0.652a2.767,2.767,0,0,0,1.092.217C253.227,265.581,252.979,265.742,253.415,265.611Zm3.275-1.522c-0.584.71-.636,0.084-0.655,1.522a3.436,3.436,0,0,0,1.31.217q0.109-.325.218-0.652h0.219v-0.217h-0.219A0.873,0.873,0,0,0,256.69,264.089Zm5.022,0.217-0.874-.217v0.217c-0.7.18-.633,0.257-0.655,1.088a1.826,1.826,0,0,0,1.31.434,1.955,1.955,0,0,0,.437-1.087C261.682,264.494,261.843,264.741,261.712,264.306Zm3.275-.217c-0.159.259-.811,0.637-0.655,1.087h0.218c0.18,0.7.258,0.631,1.092,0.652a1.807,1.807,0,0,0,.437-1.3A4.522,4.522,0,0,0,264.987,264.089Zm19.432,0V268h4.149v-3.914h-4.149Zm-203.056.435v4.783h2.62v-4.783h-2.62Zm6.332,0v4.783h2.62v-4.783h-2.62Zm6.332,0v4.783h2.62v-4.783h-2.62Zm6.114,0v4.783h2.62v-4.783h-2.62Zm6.332,0v4.783h2.62v-4.783h-2.62Zm35.152,0v0.87h-4.148c-0.073-.218-0.146-0.435-0.218-0.653A15.369,15.369,0,0,1,141.624,264.524Zm39.083,0h4.367v0.87h-4.367v-0.87Zm-155.24.87v15.654H53.415V265.611c-1.706-.62-6.459-0.217-8.734-0.217H25.467Zm379.913,0.217a2.981,2.981,0,0,0-.655,1.522c0.846,0.717.225,0.879,1.965,0.87a3.308,3.308,0,0,0,.437-1.957l-0.655-.218v-0.217H405.38Zm-383.843.652v3.479h3.057v-3.479H21.537Zm334.716,0.87v13.915h34.935v-13.7l-20.961-.217-9.389.217A21.012,21.012,0,0,0,356.253,267.133ZM226.122,268c1.236-.285,1.141-0.517,2.4,0a3.858,3.858,0,0,1,.437,1.956c-0.8.475-.763,0.864-2.184,0.87-0.623-.735-1.031-0.528-1.091-1.957A1.2,1.2,0,0,0,226.122,268Zm5.022-.435c1.535,0.083,2.032.664,1.965,2.391-0.248.248-.087,0-0.218,0.435l-0.655.218a1.747,1.747,0,0,1-1.965-.218l-0.219-1.087h-0.218s0.195-.666.218-0.87A4.761,4.761,0,0,0,231.144,267.568Zm4.367,0,1.092,0.217c0.76,1.238,1.135.941,0.436,2.609a3.9,3.9,0,0,1-1.965.435c-0.476-.794-0.867-0.759-0.873-2.174a6.114,6.114,0,0,1,.655-0.652v-0.218h0.655v-0.217Zm4.148,0a1.658,1.658,0,0,1,1.747,1.087h0.218c0.331,0.57-.49,1.85-0.655,1.957h-0.436v0.217h-1.31c-0.493-.84-0.844-0.734-0.874-2.174h0.219V268.22L239,268v-0.218h0.655v-0.217Zm4.149,0a4.188,4.188,0,0,1,1.528.435,3.858,3.858,0,0,1,.437,1.956c-0.8.475-.762,0.864-2.183,0.87a6.2,6.2,0,0,1-.656-0.652c-0.537-.507-0.35-1.051-0.218-1.74A4.761,4.761,0,0,0,243.808,267.568Zm4.367,0,1.091,0.217a2.649,2.649,0,0,1,.655,2.174c-0.248.248-.087,0-0.218,0.435l-0.655.218a1.747,1.747,0,0,1-1.965-.218v-0.435h-0.218v-1.522L247.52,268v-0.218h0.655v-0.217ZM253.852,268a3.535,3.535,0,0,1,.218,2.174,2.862,2.862,0,0,1-2.184.652c-0.476-.794-0.867-0.759-0.873-2.174a6.114,6.114,0,0,1,.655-0.652v-0.218l1.31-.217A1.216,1.216,0,0,0,253.852,268Zm1.746,0c1.236-.285,1.141-0.517,2.4,0a3.858,3.858,0,0,1,.437,1.956c-0.8.475-.763,0.864-2.184,0.87-0.623-.735-1.031-0.528-1.091-1.957A1.2,1.2,0,0,0,255.6,268Zm5.022-.435c1.535,0.083,2.032.664,1.965,2.391-0.248.248-.087,0-0.218,0.435l-0.655.218a1.747,1.747,0,0,1-1.965-.218v-0.435h-0.219v-1.522A4.761,4.761,0,0,0,260.62,267.568Zm4.367,0,1.092,0.217c0.76,1.238,1.135.941,0.436,2.609a3.9,3.9,0,0,1-1.965.435c-0.476-.794-0.867-0.759-0.873-2.174a6.114,6.114,0,0,1,.655-0.652v-0.218h0.655v-0.217Zm-237.336.217h0.873v4.131H27.651v-4.131Zm2.62,0h6.769a10.172,10.172,0,0,1,.218,3.044c-1.59.585-4.558,0.229-6.55,0.218V273h6.332a10.172,10.172,0,0,1,.218,3.044c-1.59.585-4.558,0.229-6.55,0.218V278h6.114a0.377,0.377,0,0,0,.218.217v0.653H30.271a4.709,4.709,0,0,1-.437-2.827c1.461-.755,4.6-0.451,6.769-0.435v-1.956H30.271a4.709,4.709,0,0,1-.437-2.827c0.249-.248.087,0,0.218-0.435h6.332a4.484,4.484,0,0,0,.218-1.739,0.384,0.384,0,0,1-.218-0.218H30.271v-0.652Zm8.734,0h0.873v4.131H39v-4.131Zm2.838,0h6.769a16.453,16.453,0,0,1,.218,2.827c-1.461.755-4.6,0.451-6.769,0.435v1.739c1.59,0.585,4.558.229,6.55,0.217a8.476,8.476,0,0,1,0,3.262H42.28A4.482,4.482,0,0,0,42.061,278h6.114a0.377,0.377,0,0,0,.218.217v0.653H41.625a10.172,10.172,0,0,1-.218-3.044c1.59-.585,4.558-0.229,6.55-0.218v-1.956H41.625a10.172,10.172,0,0,1-.218-3.044c1.59-.586,4.558-0.229,6.55-0.218v-1.957H41.843v-0.652Zm8.515,0h0.873v4.131H50.358v-4.131ZM291.406,268h5.459c0.669,1.281.453,3.917,0.436,5.87l-0.655.217c-0.617.564-4.671,0.156-5.458,0A10.991,10.991,0,0,1,291.406,268Zm7.424,6.087a24.219,24.219,0,0,1,0-5.87,13.35,13.35,0,0,1,3.711-.217h7.206c0.669,1.281.453,3.917,0.436,5.87l-0.655.217c-0.469.419-1.994,0.218-2.838,0.218A48.315,48.315,0,0,1,298.83,274.09Zm62.663-5.87,1.529,0.435,1.092,1.3q0.108,0.652.218,1.305h-0.218v0.87c-0.583.385-.5,0.867-1.311,1.087a2.644,2.644,0,0,1-1.965.435,2.176,2.176,0,0,0-.873-0.435q-0.109-.217-0.218-0.435l-0.437-.218a4.1,4.1,0,0,1-.437-2.391,2.043,2.043,0,0,0,.437-0.87l0.437-.217v-0.218h0.436l0.219-.435h1.091V268.22Zm6.332,0h0.219v0.217h1.091l0.219,0.435h0.436v0.218a0.749,0.749,0,0,1,.437.652,2.615,2.615,0,0,1,.437,1.957c-1.19,1.061-.72,1.956-3.275,1.957v-0.218l-1.092-.217-0.437-.653h-0.218v-0.434h-0.218v-0.87h-0.219c-0.295-1.318,1.256-2.246,1.747-2.827h0.873V268.22Zm6.332,0a3,3,0,0,1,2.4,1.3c1.591,1.476-.655,4.863-2.838,4.131-0.993-.334-1.289-1.156-1.966-1.74a11.614,11.614,0,0,1,.219-2.391l1.31-1.088h0.873V268.22Zm6.55,0,1.529,0.435,1.092,1.3q0.108,0.652.218,1.305h-0.218v0.87c-0.583.385-.5,0.867-1.311,1.087a2.644,2.644,0,0,1-1.965.435,2.176,2.176,0,0,0-.873-0.435q-0.109-.217-0.218-0.435l-0.437-.218a4.1,4.1,0,0,1-.437-2.391,2.043,2.043,0,0,0,.437-0.87l0.437-.217v-0.218H379.4l0.219-.435h1.091V268.22Zm6.332,0h0.219v0.217h1.091l0.219,0.435H389v0.218a0.749,0.749,0,0,1,.437.652,2.615,2.615,0,0,1,.437,1.957c-1.19,1.061-.72,1.956-3.275,1.957v-0.218l-1.092-.217-0.437-.653h-0.218v-0.434h-0.218v-0.87h-0.219c-0.295-1.318,1.256-2.246,1.747-2.827h0.873V268.22Zm-318.34.217h0.218v0.218H69.79l0.218,0.435,0.655,0.217v0.435a1.971,1.971,0,0,1,.437,1.739,1.206,1.206,0,0,0-.437.87,3.9,3.9,0,0,1-2.62.87V273H67.607v-0.217H67.17l-0.218-.652H66.734a1.793,1.793,0,0,1-.218-1.087c-0.3-.392.077-0.9,0.218-1.522a4.791,4.791,0,0,0,1.092-.87H68.7v-0.218Zm145.415,0v1.74h8.733v-1.74h-8.733Zm12.663,0a3.39,3.39,0,0,0-.218,1.305,1.629,1.629,0,0,1,.655.435c0.439-.125.189,0.026,0.437-0.218a0.655,0.655,0,0,0,.436-0.652h0.219V269.09h-0.219c-0.072-.218-0.145-0.435-0.218-0.653h-1.092Zm5.459,1.522q0.11-.543.218-1.087a1.829,1.829,0,0,0-1.31-.435,1.81,1.81,0,0,0-.437,1.305,1.622,1.622,0,0,1,.655.435Zm2.838,0,0.874,0.218v-0.218c0.7-.179.633-0.256,0.655-1.087a1.831,1.831,0,0,0-1.31-.435,1.635,1.635,0,0,1-.437.653C234.929,269.38,235,269.67,235.074,269.959Zm4.367-1.522a3.39,3.39,0,0,0-.218,1.305l0.655,0.217c0.671,0.3.913-.221,0.873-1.3h-0.218v-0.218h-1.092Zm4.367,0a1.81,1.81,0,0,0-.437,1.305,1.622,1.622,0,0,1,.655.435c0.439-.125.189,0.026,0.437-0.218a1.019,1.019,0,0,0,.655-0.869H244.9l-0.219-.653h-0.873Zm3.93,1.522,0.873,0.218v-0.218c0.7-.179.634-0.256,0.655-1.087a1.827,1.827,0,0,0-1.31-.435,1.966,1.966,0,0,0-.436,1.088C247.768,269.772,247.607,269.525,247.738,269.959Zm5.677-1.3-1.31-.218-0.219.653h-0.218v0.217h0.218a2.329,2.329,0,0,0,.437.87c0.439-.125.189,0.026,0.437-0.218l0.655-.217v-1.087Zm2.62,0v1.087a1.629,1.629,0,0,1,.655.435c0.439-.125.189,0.026,0.437-0.218a0.655,0.655,0,0,0,.436-0.652h0.219V269.09h-0.219c-0.18-.7-0.257-0.631-1.091-0.653C256.223,268.685,256.471,268.524,256.035,268.655Zm5.677,1.3q0.11-.543.218-1.087a1.829,1.829,0,0,0-1.31-.435,1.81,1.81,0,0,0-.437,1.305,1.622,1.622,0,0,1,.655.435Zm2.838,0,0.874,0.218v-0.218c0.7-.179.633-0.256,0.655-1.087a1.831,1.831,0,0,0-1.31-.435,1.635,1.635,0,0,1-.437.653C264.4,269.38,264.477,269.67,264.55,269.959Zm-127.292-1.3h4.366v0.87h-4.148v-0.218h-0.218v-0.652Zm43.449,0h4.367v0.652h-0.218c-0.6.544-3.1,0.239-4.149,0.218v-0.87Zm111.136,0.217v4.566h4.585v-4.566h-4.585Zm7.642,0v4.566h9.825v-4.566h-9.825Zm61.353,0.218c-0.418.5-.655,0.277-0.873,1.087h-0.218v1.739l0.655,0.435v0.217h0.436v0.218c1.469,0.529,3.189-.933,2.621-2.392a5.616,5.616,0,0,0-1.311-1.3h-1.31Zm6.551,0c-0.434.512-.881,0.51-1.092,1.3-1.044,1.044.845,3.021,2.4,2.392,0.88-.356,1.173-1.258,1.091-2.609a6.114,6.114,0,0,0-.655-0.652A2.316,2.316,0,0,0,367.389,269.09Zm6.332,0a6.7,6.7,0,0,0-.874.869c-0.442.4-.014,0.1-0.218,0.653-0.377,1.02,0,1.138.655,1.739l0.218,0.435h1.747c0.454-.772.972-0.964,1.092-2.174h-0.219v-0.653a2.234,2.234,0,0,1-.218-0.217,2.9,2.9,0,0,1-.873-0.652h-1.31Zm6.331,0c-0.418.5-.655,0.277-0.873,1.087h-0.218v1.739l0.655,0.435v0.217h0.436v0.218c1.469,0.529,3.189-.933,2.62-2.392a5.593,5.593,0,0,0-1.31-1.3h-1.31Zm6.551,0c-0.434.512-.881,0.51-1.092,1.3-1.044,1.044.845,3.021,2.4,2.392,0.88-.356,1.173-1.258,1.091-2.609a6.114,6.114,0,0,0-.655-0.652A2.316,2.316,0,0,0,386.6,269.09Zm-318.341.217c-0.418.5-.656,0.277-0.873,1.087a1.475,1.475,0,0,0,.218,1.74h0.437v0.217h1.528a2.649,2.649,0,0,0,.655-2.174c-0.249-.248-0.087,0-0.218-0.435l-0.655-.217v-0.218H68.262Zm-46.725,1.087v3.479h3.057v-3.479H21.537Zm262.882,0a26.969,26.969,0,0,1,4.585.218,11.015,11.015,0,0,1,.219,3.261c-1.261.466-3.6,0.229-5.24,0.217a11.015,11.015,0,0,1-.219-3.261A1.622,1.622,0,0,0,284.419,270.394Zm0,0.87v1.957a13.7,13.7,0,0,0,3.93.217,0.383,0.383,0,0,1,.219-0.217v-1.957h-4.149Zm-199.781.87a19.985,19.985,0,0,1,0,6.087,12.027,12.027,0,0,1-3.93,0,34.384,34.384,0,0,1,0-6.087A12.055,12.055,0,0,1,84.638,272.134Zm6.332,0v6.087a12.026,12.026,0,0,1-3.93,0c-0.528-1.419-.23-4.064-0.218-5.87l0.655-.217C88.045,271.6,90.325,272,90.969,272.134Zm2.62-.218h3.275c0.691,1.325.453,4.085,0.437,6.088a2.645,2.645,0,0,0-.437.435H93.59c-0.6-1.1-.445-2.849-0.437-4.566v-1.522A2.354,2.354,0,0,0,93.59,271.916Zm5.9,6.305v-6.087a23.252,23.252,0,0,1,3.712-.218c0.691,1.325.453,4.085,0.436,6.088a2.638,2.638,0,0,0-.436.435H99.921C99.673,278.191,99.921,278.352,99.485,278.221Zm6.332,0v-6.087a12.053,12.053,0,0,1,3.93,0c0.527,1.419.229,4.064,0.218,5.87l-0.655.217C108.741,278.752,106.461,278.353,105.817,278.221Zm120.305-3.478a3.532,3.532,0,0,1-.218-2.175,2.68,2.68,0,0,1,2.183-.652c0.477,0.794.867,0.759,0.874,2.174a6.121,6.121,0,0,1-.655.653v0.217l-1.31.218A1.213,1.213,0,0,0,226.122,274.743Zm4.8-2.827a7.494,7.494,0,0,1,1.746.218,4.408,4.408,0,0,1,.437,2.174,5.17,5.17,0,0,0-.655.652H231.8v0.218c-0.4.069-.335-0.186-0.437-0.218-0.895-.284-1.2-0.248-1.31-1.3h-0.218v-0.218h0.218v-0.87A2.9,2.9,0,0,0,230.926,271.916Zm4.148,0c1.044-.03,1.574.044,1.965,0.652h0.219q0.108,0.653.218,1.305c-1.143,1-.987,1.636-2.838.87a2.905,2.905,0,0,1-.219-2.392A1.622,1.622,0,0,0,235.074,271.916Zm4.149,0h1.528c0.728,1.208,1,.806.655,2.609-0.948.477-2.411,1.135-2.838-.435h-0.219V273A4.863,4.863,0,0,0,239.223,271.916Zm6.332,0.435c0.225,1.03.455,1.819-.437,2.392v0.217l-1.092.218V274.96c-1.619-.128-1.585-1.484-1.092-2.609a2.415,2.415,0,0,1,1.966-.435q0.108,0.217.218,0.435h0.437Zm2.183-.435a7.511,7.511,0,0,1,1.747.218,4.42,4.42,0,0,1,.436,2.174,5.637,5.637,0,0,0-.655.652h-0.655a1.191,1.191,0,0,1-1.528-.652h-0.218v-1.522c0.248-.248.087,0,0.218-0.435A1.629,1.629,0,0,0,247.738,271.916Zm6.114,2.827c-1.236.284-1.142,0.516-2.4,0a3.865,3.865,0,0,1-.437-1.957c0.8-.474.762-0.863,2.184-0.87,0.623,0.735,1.031.528,1.091,1.957A1.2,1.2,0,0,0,253.852,274.743Zm1.746,0a3.532,3.532,0,0,1-.218-2.175,2.861,2.861,0,0,1,2.183-.652c0.477,0.794.867,0.759,0.874,2.174a6.121,6.121,0,0,1-.655.653v0.217l-1.31.218A1.213,1.213,0,0,0,255.6,274.743Zm4.8-2.827a7.494,7.494,0,0,1,1.746.218,4.408,4.408,0,0,1,.437,2.174,5.637,5.637,0,0,0-.655.652h-0.655a1.191,1.191,0,0,1-1.528-.652h-0.219v-1.522c0.249-.248.087,0,0.219-0.435A1.635,1.635,0,0,0,260.4,271.916Zm4.148,0c1.044-.03,1.574.044,1.965,0.652h0.219q0.108,0.653.218,1.305c-1.143,1-.987,1.636-2.838.87a2.905,2.905,0,0,1-.219-2.392A1.622,1.622,0,0,0,264.55,271.916Zm-37.991,2.174,1.31,0.218q0.109-.327.218-0.652h0.219v-0.218h-0.219c-0.161-.7-0.3-0.792-1.091-0.87a0.866,0.866,0,0,1-.437.435v1.087Zm5.677-1.3-0.874-.218v0.218c-0.7.179-.633,0.256-0.655,1.087a1.822,1.822,0,0,0,1.31.435,1.959,1.959,0,0,0,.437-1.087C232.206,272.973,232.367,273.22,232.236,272.786Zm2.838,0c-0.073.29-.145,0.58-0.218,0.87h0.218c0.18,0.695.258,0.631,1.092,0.652A1.808,1.808,0,0,0,236.6,273a1.622,1.622,0,0,1-.655-0.435Zm4.585-.218a1.9,1.9,0,0,0-.436,1.522,3.43,3.43,0,0,0,1.31.218,3.39,3.39,0,0,0,.218-1.305,0.87,0.87,0,0,1-.437-0.435h-0.655Zm5.241,0.218-0.874-.218v0.218c-0.7.179-.633,0.256-0.655,1.087a1.822,1.822,0,0,0,1.31.435,1.615,1.615,0,0,1,.437-0.652Q245.008,273.221,244.9,272.786Zm2.838,0q-0.11.543-.218,1.087a0.975,0.975,0,0,0,1.746-.87,1.635,1.635,0,0,1-.655-0.435Zm4.585-.218a2.877,2.877,0,0,1-.655.87q0.11,0.327.218,0.652a2.783,2.783,0,0,0,1.092.218,1.808,1.808,0,0,0,.437-1.305,0.87,0.87,0,0,1-.437-0.435h-0.655Zm4.149,0a0.973,0.973,0,1,0,.873,1.74q0.109-.327.218-0.652h0.219v-0.218h-0.219C257.4,272.739,257.267,272.646,256.472,272.568Zm5.24,0.218-0.874-.218v0.218c-0.7.179-.633,0.256-0.655,1.087a1.822,1.822,0,0,0,1.31.435,1.959,1.959,0,0,0,.437-1.087C261.682,272.973,261.843,273.22,261.712,272.786Zm2.838,0c-0.073.29-.145,0.58-0.218,0.87h0.218c0.18,0.695.258,0.631,1.092,0.652a1.808,1.808,0,0,0,.437-1.305,1.622,1.622,0,0,1-.655-0.435Zm-183.187,0v4.783h2.62v-4.783h-2.62Zm6.332,0v4.783h2.62v-4.783h-2.62Zm6.332,0v4.783h2.62v-4.783h-2.62Zm6.114,0v4.783h2.62v-4.783h-2.62Zm6.332,0v4.783h2.62v-4.783h-2.62Zm35.152,0v0.87h-4.148c-0.073-.218-0.146-0.435-0.218-0.653A15.369,15.369,0,0,1,141.624,272.786Zm39.083,0h4.149V273h0.218v0.653h-4.367v-0.87Zm-153.056.652h0.655v0.218c0.447,0.493.237,3.96,0.218,5H27.651v-5.218Zm11.354,0h0.873v5.218H39v-5.218Zm12.227,0v5.218H50.358v-5a0.384,0.384,0,0,0,.218-0.218h0.655Zm162.883,0.435v1.957h8.733v-1.957h-8.733Zm146.943,0.652,1.746,0.218c0.431,0.652.617,0.2,0.874,1.087,1.062,0.889.263,2.156,0,3.261a5.039,5.039,0,0,1-2.62.87v-0.218l-1.092-.217-0.437-.652H359.31a4.191,4.191,0,0,1-.437-2.392c0.65-.583.456-1.241,1.529-1.522v-0.217h0.655v-0.218Zm6.55,0,1.965,0.435,0.437,0.652h0.218a4.191,4.191,0,0,1,.437,2.392c-0.65.583-.456,1.241-1.529,1.522a2.316,2.316,0,0,1-1.746.435v-0.218h-0.655l-0.219-.434h-0.436l-0.219-.653h-0.218a1.784,1.784,0,0,1-.218-1.087h-0.219l0.219-1.522a3.279,3.279,0,0,0,.655-0.869h0.436l0.219-.435h0.873v-0.218Zm6.332,0,1.965,0.435L377,276.265a11.545,11.545,0,0,1-.219,2.391,4.245,4.245,0,0,1-1.31.87c-0.73.77-1.729,0.2-2.62,0l-1.092-1.305a11.614,11.614,0,0,1,.219-2.391l0.873-.652V274.96l1.092-.217v-0.218Zm6.332,0,1.746,0.218c0.431,0.652.617,0.2,0.874,1.087,1.062,0.889.263,2.156,0,3.261a5.039,5.039,0,0,1-2.62.87v-0.218l-1.092-.217-0.437-.652h-0.218a4.191,4.191,0,0,1-.437-2.392c0.65-.583.456-1.241,1.529-1.522v-0.217h0.655v-0.218Zm6.55,0,1.965,0.435,0.437,0.652h0.218a4.191,4.191,0,0,1,.437,2.392c-0.65.583-.456,1.241-1.529,1.522a2.316,2.316,0,0,1-1.746.435v-0.218h-0.655l-0.219-.434h-0.436l-0.219-.653h-0.218a1.784,1.784,0,0,1-.218-1.087h-0.219l0.219-1.522a3.279,3.279,0,0,0,.655-0.869h0.436l0.219-.435h0.873v-0.218Zm-365.284.218v6.305h3.057v-6.305H21.537Zm46.507,0h1.528v0.217a1.469,1.469,0,0,1,1.092.87c0.436,0.411.006,0.111,0.218,0.652,0.666,1.7-.555,1.951-1.31,2.827-1.874.067-2.213-.1-2.838-1.305H66.515L66.3,276.917h0.218l0.218-1.3A4.832,4.832,0,0,0,68.044,274.743ZM68.48,275.4v0.217H67.825l-0.218.435H67.389v0.435c-0.6,1.243.359,2.157,1.747,2.174,0.853-.991,1.117-0.35,1.092-2.391A4.794,4.794,0,0,0,68.48,275.4Zm294.542,3.261c0.133-.583.72-1.115,0.437-1.956H363.24c-0.073-.29-0.145-0.58-0.218-0.87a5.586,5.586,0,0,0-2.184-.435c-0.248.248,0,.087-0.436,0.217a3.183,3.183,0,0,1-.437.435v0.435h-0.218V278h0.218v0.435a2.767,2.767,0,0,0,2.4.652l0.218-.435h0.437Zm3.493-2.826a5.517,5.517,0,0,0-.436,2.174c0.655,0.429.2,0.614,1.091,0.87,1.093,1.094,3.291-.746,2.62-2.392a2.207,2.207,0,0,0-2.62-1.087q-0.108.218-.218,0.435h-0.437Zm7.206-.435c-0.291.33-.6,0.5-0.874,0.87h-0.218a2.469,2.469,0,0,0,.218,2.174,2.862,2.862,0,0,0,2.184.652c0.707-.837,1.165-0.6,1.31-2.174h-0.219v-0.652a2.36,2.36,0,0,1-.218-0.218,2.9,2.9,0,0,1-.873-0.652h-1.31Zm8.515,3.261c0.133-.583.72-1.115,0.436-1.956h-0.218c-0.073-.29-0.145-0.58-0.218-0.87a5.586,5.586,0,0,0-2.184-.435c-0.248.248,0,.087-0.436,0.217a3.183,3.183,0,0,1-.437.435v0.435h-0.218V278h0.218v0.435a2.767,2.767,0,0,0,2.4.652l0.218-.435h0.437Zm3.493-2.826a5.517,5.517,0,0,0-.436,2.174c0.655,0.429.2,0.614,1.091,0.87,1.093,1.094,3.291-.746,2.62-2.392a2.207,2.207,0,0,0-2.62-1.087q-0.108.218-.218,0.435h-0.437Zm-101.965,3.261V275.83c1.642-.6,6.312-0.228,8.515-0.218a2.656,2.656,0,0,0,.437.435v2.827c-1.66.855-6.05,0.45-8.515,0.435C283.952,279.061,284.2,279.222,283.764,279.091Zm10.044,0V275.83c1.425-.526,4.082-0.229,5.895-0.218a2.656,2.656,0,0,0,.437.435v2.827c-1.287.666-3.934,0.451-5.895,0.435C294,279.061,294.244,279.222,293.808,279.091Zm7.86-3.479h8.079a5.313,5.313,0,0,1,.436,3.044c-0.248.248-.087,0-0.218,0.435-1.608.59-6.137,0.228-8.3,0.218A3.766,3.766,0,0,1,301.668,275.612ZM227,276.047a4.188,4.188,0,0,1,1.528.435c0.524,1.011.684,1.614-.218,2.392v0.217h-0.437a1.286,1.286,0,0,1-1.965-.87h-0.218q0.108-.76.218-1.521h0.218C226.394,276.387,226.727,276.361,227,276.047Zm5.895,2.827h-0.437l-0.218.435a2.977,2.977,0,0,1-1.747-.218c-0.073-.217-0.145-0.435-0.218-0.652h-0.219v-0.652h-0.218a5.133,5.133,0,0,0,.218-0.87,3.292,3.292,0,0,1,1.092-.652v-0.218h0.873c0.854,0.992,1.118.351,1.092,2.392C232.861,278.687,233.022,278.44,232.891,278.874Zm4.148-2.392c0.286,1.23.519,1.136,0,2.392a3.9,3.9,0,0,1-1.965.435c-0.579-.967-0.881-0.653-0.873-2.392a3.091,3.091,0,0,1,1.965-.87A1.212,1.212,0,0,0,237.039,276.482Zm2.62-.435a4.193,4.193,0,0,1,1.529.435c0.647,1.262.646,1.986-.655,2.609v0.218c-1.541.53-2.218-.945-2.184-2.175h0.219V276.7l0.436-.218v-0.217h0.655v-0.218Zm3.275,0.435a3.575,3.575,0,0,1,2.184-.217,2.832,2.832,0,0,1,.655,2.174c-0.8.474-.762,0.863-2.183,0.87a6.121,6.121,0,0,1-.656-0.653h-0.218q-0.11-.652-0.218-1.3A1.206,1.206,0,0,0,242.934,276.482Zm5.022-.435,1.31,0.218a2.648,2.648,0,0,1,.655,2.174c-0.248.248-.087,0-0.218,0.435l-0.655.217a1.749,1.749,0,0,1-1.965-.217v-0.435h-0.218v-1.522A4.781,4.781,0,0,0,247.956,276.047Zm5.9,0.435a3.537,3.537,0,0,1,.218,2.174,2.858,2.858,0,0,1-2.184.653c-0.476-.794-0.867-0.76-0.873-2.175a6.208,6.208,0,0,1,.655-0.652v-0.217l1.31-.218A1.216,1.216,0,0,0,253.852,276.482Zm1.746,0c1.236-.285,1.141-0.517,2.4,0a3.865,3.865,0,0,1,.437,1.957l-0.655.435v0.217h-0.437v0.218h-1.092v-0.218a1.5,1.5,0,0,1-1.091-1.739A1.206,1.206,0,0,0,255.6,276.482Zm6.769,2.392H261.93l-0.218.435a2.977,2.977,0,0,1-1.747-.218,4.43,4.43,0,0,1-.437-2.174,3.093,3.093,0,0,1,1.965-.87c0.854,0.992,1.118.351,1.092,2.392C262.337,278.687,262.5,278.44,262.367,278.874Zm4.148-2.392c0.286,1.23.519,1.136,0,2.392a3.9,3.9,0,0,1-1.965.435c-0.476-.794-0.867-0.76-0.873-2.175,0.738-.621.53-1.027,1.965-1.087A1.212,1.212,0,0,0,266.515,276.482Zm17.9,0v1.957h7.424v-1.957h-7.424Zm10.044,0v1.957h4.8v-1.957h-4.8Zm7.642,0v1.957h7.2v-1.957h-7.2Zm-75.328.435a3.388,3.388,0,0,0-.218,1.3l0.655,0.218v0.217c0.3,0.081-.073-0.115.218-0.217,0.582-.2.5-0.026,0.655-0.652h0.219v-0.218h-0.219c-0.072-.217-0.145-0.435-0.218-0.652h-1.092Zm5.459,1.522q0.11-.543.218-1.087a0.976,0.976,0,0,0-1.747.869,1.642,1.642,0,0,1,.655.435Zm3.057-1.522a1.959,1.959,0,0,0-.437,1.087,2.91,2.91,0,0,1,.873.652l0.655-.217a2.753,2.753,0,0,0,.219-1.087,0.866,0.866,0,0,1-.437-0.435h-0.873Zm4.148,0a3.388,3.388,0,0,0-.218,1.3l0.655,0.218c0.671,0.3.913-.222,0.873-1.305h-0.218v-0.217h-1.092Zm4.367,0a1.807,1.807,0,0,0-.437,1.3l0.655,0.218v0.217h0.219v-0.217a0.874,0.874,0,0,0,.873-0.87H244.9l-0.219-.652h-0.873Zm3.93,1.522a2.291,2.291,0,0,0,1.31,0q0.11-.543.218-1.087a1.819,1.819,0,0,0-1.31-.435A1.966,1.966,0,0,0,247.52,278C247.768,278.252,247.607,278.005,247.738,278.439Zm4.367-1.522a1.629,1.629,0,0,1-.437.652,1.054,1.054,0,0,0,.873.87c0.672,0.3.913-.222,0.874-1.305H253.2v-0.217h-1.092Zm4.148,0a3.388,3.388,0,0,0-.218,1.3l0.655,0.218v0.217h0.218v-0.217c0.582-.2.5-0.026,0.655-0.652h0.219v-0.218h-0.219c-0.072-.217-0.145-0.435-0.218-0.652h-1.092Zm5.459,1.522q0.11-.543.218-1.087a0.976,0.976,0,0,0-1.747.869,1.642,1.642,0,0,1,.655.435Zm3.057-1.522a1.639,1.639,0,0,1-.437.652c0.125,0.437-.026.188,0.218,0.435a6.2,6.2,0,0,0,.655.652l0.655-.217a2.753,2.753,0,0,0,.219-1.087,0.866,0.866,0,0,1-.437-0.435h-0.873Zm-127.511.217h4.366v0.653h-4.366v-0.653Zm43.449,0h4.367v0.653h-4.367v-0.653Zm41.485,16.09a8.717,8.717,0,0,0,1.747.217,2.8,2.8,0,0,0,.437-1.739c-0.736-.446-1.789-1.246-2.184.217h-0.218Q222.084,292.572,222.192,293.224Zm-168.777-1.74c-0.375.464-.444,0.123-0.655,0.87H52.542v0.87a2.691,2.691,0,0,0,1.965.652,2.8,2.8,0,0,0,.437-1.74,1.457,1.457,0,0,1-.655-0.652H53.415Zm227.292,0.435a1.7,1.7,0,0,1-.655.435v0.652h-0.218a6.05,6.05,0,0,1,.218.87,2.834,2.834,0,0,0,1.747.435c0.447-.733,1.251-1.781-0.218-2.175v-0.217h-0.874Zm57.424,1.957a2.659,2.659,0,0,0-.655,1.957,2.826,2.826,0,0,0,1.747.434,2.218,2.218,0,0,0,.655-1.522c-0.466-.373-0.124-0.442-0.874-0.652v-0.217h-0.873Zm-187.991.869c-0.72.843-.883,0.225-0.874,1.957a3.336,3.336,0,0,0,1.965.435l0.219-.652h0.218a2.506,2.506,0,0,0-.437-1.522h-0.436v-0.218H150.14Z" transform="translate(-8 -172)"/>
</svg>
