<svg id="cup" xmlns="http://www.w3.org/2000/svg" width="205" height="269.094" viewBox="0 0 205 269.094">
  <metadata><?xpacket begin="﻿" id="W5M0MpCehiHzreSzNTczkc9d"?>
<x:xmpmeta xmlns:x="adobe:ns:meta/" x:xmptk="Adobe XMP Core 5.6-c140 79.160451, 2017/05/06-01:08:21        ">
   <rdf:RDF xmlns:rdf="http://www.w3.org/1999/02/22-rdf-syntax-ns#">
      <rdf:Description rdf:about=""/>
   </rdf:RDF>
</x:xmpmeta>
                                                                                                    
                                                                                                    
                                                                                                    
                                                                                                    
                                                                                                    
                                                                                                    
                                                                                                    
                                                                                                    
                                                                                                    
                                                                                                    
                                                                                                    
                                                                                                    
                                                                                                    
                                                                                                    
                                                                                                    
                                                                                                    
                                                                                                    
                                                                                                    
                                                                                                    
                                                                                                    
                           
<?xpacket end="w"?></metadata>
<defs>
    <style>
      .cls-1 {
        fill: #ffce35;
      }

      .cls-1, .cls-2 {
        fill-rule: evenodd;
      }

      .cls-2 {
        fill: #e8ad3a;
      }
    </style>
  </defs>
  <path class="cls-1" d="M183,91v30l-29,1s-0.259,87.729,48,86c0,0,14.164,46.784,44,57l1,41-27,2v6H205l1,11H307V315H292v-7H266V266s33.912-14.28,44-58c0,0,42.633,9.886,49-86l-30-1V92S202.362,90.538,183,91Zm3,49H172s7.3,42.686,23,49C195,189,184.867,152.01,186,140Zm141-1,13,1s-7.288,45.563-23,50C317,190,328.089,146.69,327,139Z" transform="translate(-154 -90.906)"/>
  <rect x="35" y="234.094" width="133" height="8"/>
  <rect id="Rectangle_1_copy" data-name="Rectangle 1 copy" x="51" y="241.094" width="103" height="16"/>
  <rect id="Rectangle_1_copy_2" data-name="Rectangle 1 copy 2" x="35" y="253.094" width="135" height="16"/>
  <path class="cls-2" d="M299,92h31s0.787,149.162-63,173c0,0-16.488,3.15-21-1,0,0,40.324-8.052,45-76C291,188,300.8,105.875,299,92Z" transform="translate(-154 -90.906)"/>
</svg>
