<svg xmlns="http://www.w3.org/2000/svg" width="314.188" height="445.844" viewBox="0 0 314.188 445.844">
  <metadata><?xpacket begin="﻿" id="W5M0MpCehiHzreSzNTczkc9d"?>
<x:xmpmeta xmlns:x="adobe:ns:meta/" x:xmptk="Adobe XMP Core 5.6-c140 79.160451, 2017/05/06-01:08:21        ">
   <rdf:RDF xmlns:rdf="http://www.w3.org/1999/02/22-rdf-syntax-ns#">
      <rdf:Description rdf:about=""/>
   </rdf:RDF>
</x:xmpmeta>
                                                                                                    
                                                                                                    
                                                                                                    
                                                                                                    
                                                                                                    
                                                                                                    
                                                                                                    
                                                                                                    
                                                                                                    
                                                                                                    
                                                                                                    
                                                                                                    
                                                                                                    
                                                                                                    
                                                                                                    
                                                                                                    
                                                                                                    
                                                                                                    
                                                                                                    
                                                                                                    
                           
<?xpacket end="w"?></metadata>
<defs>
    <style>
      .cls-1 {
        fill: #ecd48a;
      }

      .cls-1, .cls-2, .cls-3, .cls-4, .cls-5, .cls-6 {
        fill-rule: evenodd;
      }

      .cls-2 {
        fill: #5aaf43;
      }

      .cls-3 {
        fill: #fff;
      }

      .cls-4 {
        fill: #ff9d02;
        opacity: 0.5;
      }

      .cls-6 {
        fill: #0030ff;
      }
    </style>
  </defs>
  <path class="cls-1" d="M124,232c-0.712-5.414-5.156-16.606-11-22s-5.493-14.723-11-6-2.532,23.551-1,32,3.39,27.537,7,35,9.123,26.272,12,28,6.538,7.621,10,4,2.868-9.839,5-6,6.133,21.282,9,29,9.984,60.711,14,67,30.8,30.217,33,35,4,8,4,8,16.788,25.111,25,27,2.581,0.326,12,2,14.537,6.309,35,4,30.928-10.621,38-19,22.594-27.288,27-33,22.2-31.626,23-34,6.517-47.421,10-57,7.028-26.793,10-27a24.254,24.254,0,0,1,7,1s15.089-3.371,18-23c0,0,10.249-18.017,10-24a58.811,58.811,0,0,1,0-8s2.821-17.591,3-22-2-17-2-17-9.553.418-11,3a11.925,11.925,0,0,1-2,3,28.669,28.669,0,0,1-6,6c-3.086,2.016-11,2-11,2s-12.046-6.867-11-15-8.472-23.9-13-25-18.253-9.276-26-7-29.483,32.431-44,37-13.536,5.431-17,5a191.554,191.554,0,0,1-34-6c-19.086-5.038-36.161-15.44-42-18s-19.226-12.8-30-8-31.472,17.767-32,20-1,4-1,4-3.276,21.432-3,23a9.27,9.27,0,0,1,0,3S124.712,237.414,124,232Z" transform="translate(-98.813 -25)"/>
  <path id="Rectangle_1_copy" data-name="Rectangle 1 copy" class="cls-2" d="M292,162h80s19.855,77.525.583,138.44C360.63,338.222,354,385,354,385s-16.023,25.141-32.229,45.269A298.391,298.391,0,0,1,292,462V162Z" transform="translate(-98.813 -25)"/>
  <path id="Rectangle_1_copy_2" data-name="Rectangle 1 copy 2" class="cls-3" d="M212,162h80V462a88.378,88.378,0,0,1-32.644,8.821c-8.937.509-20.182-5.176-27.828-5.372A34.711,34.711,0,0,1,214,460Z" transform="translate(-98.813 -25)"/>
  <path class="cls-4" d="M134,162h80l1,299s-11.179-13.99-25.268-32.859C175.822,409.512,158,393,158,393s-9.631-52.4-23.22-95.747C115.193,234.778,134,162,134,162Z" transform="translate(-98.813 -25)"/>
  <path class="cls-5" d="M229,364s-5.7,20.012,8,19c0,0,3.736-14.778,4-16s-4.295,21.531,3,23a57.281,57.281,0,0,0,9,1c3.893,0,11.839,1.341,14-1a19.991,19.991,0,0,0,3-4s2.121-1.537,1-5a42.35,42.35,0,0,1-2-8c-0.255-2.172-1.153-5.191-1-6s5.751,5.168,7,8,1.962,4.769,2,6,3.325,0.036,4-1,3-6,3-6a9.76,9.76,0,0,1-1-4,29.018,29.018,0,0,0,0-4l6,4a38.514,38.514,0,0,0-2,5c-0.364,1.554-3.785,6.963-6,9s-4.992,2.681-8,6-3.717,5.155-5,6-5,4-5,4l-5,6s0.516,2.762-2,2-6.049-1.919-7-3a25.316,25.316,0,0,1-3-5c-0.892-1.85-1.99-2.963-5-5s-3.848-1.868-7-6-5-7-5-7-10.351-16.656,2-18S229,364,229,364Z" transform="translate(-98.813 -25)"/>
  <path class="cls-5" d="M209,409v-4s14.631,4.059,18,5,7.207,2.385,10,3,5.194,1.271,6,2,6.8,2.789,11,3a35.122,35.122,0,0,0,12-2c2.468-.923,10.364-3.362,12-4s7.663,1.508,11-1a18.824,18.824,0,0,1,5-3,7.143,7.143,0,0,1,3-2c1.59-.394,4.026-3.439,4-1s1.372,5.855,2,1-4-11-4-11a18.914,18.914,0,0,1-1,5c-0.791,1.793.519,1.893-2,3s-5.2,2.583-8,3-10.071-.169-17,2-9.8,5.454-13,5-6.491.307-10-1a111.942,111.942,0,0,0-14-4c-3.457-.635-21-4-21-4l-4-2,3-6S202.58,399.064,209,409Z" transform="translate(-98.813 -25)"/>
  <path class="cls-5" d="M223,418s10.613,11.117,23,11c0,0,13.737.589,17,0a16.518,16.518,0,0,0,4-1l7-2a65.222,65.222,0,0,0,8-4c3.206-2.015,7-5,7-5s-6.543,4.135-4,6a17.579,17.579,0,0,0,3,2s-2.444,3.453-2,5,1,3,1,3-1.758.98-6,0-16.262-.228-24,0-15,1-15,1-7.708-3.41-9-2-4.088,3.1-6,3-1.554-2.429,1-3,6.616,0.923,1-2-8-4-8-4,2.207,0.385,6,1S225.025,424.7,223,418Z" transform="translate(-98.813 -25)"/>
  <path class="cls-5" d="M163,282s10.212,1.661,14,3,14.955,10.027,19,12a89.532,89.532,0,0,0,15,5c1.405,0.131,11.546.465,12,2s-1.469,3.895,0,4,4,0,4,0l1-1a13.862,13.862,0,0,1,3-2,3.284,3.284,0,0,1,2,0s0.244-1.932,4-1,3.435,1.217,6,1a10.945,10.945,0,0,0,4-1s-10.189.232-8-2,4-4,4-4,3.472-3.58,1-3-4,1-4,1-0.728-3.868-2-3-6,2-6,2l-1-3s-10.608,2.709-10,1a14.533,14.533,0,0,1,3-4l-40-11,3-2Z" transform="translate(-98.813 -25)"/>
  <path class="cls-5" d="M263,303c-2-1.456,6,0,6,0l-3-6,8,3-2-7,7,2s-2.724-4.278-1-4,13,1,13,1l-5-3s30.1-1.75,41-13l-3-1s23.061-.274,29,6H337a126.882,126.882,0,0,0-17,14S269.14,307.48,263,303Z" transform="translate(-98.813 -25)"/>
  <path class="cls-5" d="M152,285s2.314,14.551,38,10h3l11,5S153.29,304.953,152,285Z" transform="translate(-98.813 -25)"/>
  <path class="cls-5" d="M175,300s19.383,31.108,47,6C222,306,190.628,338.53,175,300Z" transform="translate(-98.813 -25)"/>
  <path class="cls-5" d="M289,306s34.712,24.414,46-7C335,299,325.257,336.937,289,306Z" transform="translate(-98.813 -25)"/>
  <path class="cls-5" d="M300,302l4,3,7,3,1-1s-2.333-1.294-2-3-0.307-2.386,2-3,4.967-2,5,0-2.131,3.439,0,3,5-4,5-4a9.551,9.551,0,0,0-6-2c-3.643.054-17,2-17,2Z" transform="translate(-98.813 -25)"/>
  <path class="cls-5" d="M192,303l5-3s1.766,0.636,2,2a4.282,4.282,0,0,1,0,2v3s-0.476.325,2,0,11.41-3.069,11-4-1.607-3.054-4-3-19,1-19,1-0.141,4.723,1,2" transform="translate(-98.813 -25)"/>
  <path class="cls-5" d="M360,285s-7.472,15.3-41,9c0,0-6.854,5.418-22,6l24-1h11S357.4,305.224,360,285Z" transform="translate(-98.813 -25)"/>
  <path class="cls-5" d="M224.748,219.94s-20.152-15.076-33.4-22.021v2s-26.324-12.207-30.539-5c0,0-18.1,7.636-21,20.019,0,0-3.989,50.469-3.817,58.057s0,8.008,0,8.008-14.054-33.137-14.315-38.037a88.962,88.962,0,0,0-.955-9.009,194.211,194.211,0,0,1-.954-24.023c0.455-10.764.471-16.363,0-19.019a27.286,27.286,0,0,0-.954-4s-6.733-11.488-5.727-24.023,6.992-40.782,8.59-46.045,5.082-20.763,11.452-31.031S168.212,57.8,186.574,46.771s59.334-34.519,94.481-13.013c0,0,27.618,8.276,29.585,11.011a22.76,22.76,0,0,0,5.726,5s12.612,2.413,17.178,9.009,4.772,8.008,4.772,8.008,9.155,17.571,11.452,21.021a35.41,35.41,0,0,0,2.863,4s25.124,28.953,26.722,34.033,2.863,10.01,2.863,10.01,5.719,27.618,6.681,33.033a71.718,71.718,0,0,1,.954,11.01s0.629,13.6-.954,22.022-4.577,13.881-4.772,17.016-7.635,48.047-7.635,48.047-9.315-10.546-11.452-31.03-0.9-19.168-1.909-23.022,6.929-15.828-12.406-25.025-24.814-9.009-24.814-9.009a92.844,92.844,0,0,0-16.223,15.015c-6.929,8.487-8.59,10.01-8.59,10.01s-18.52,15.869-23.858,19.018a70.267,70.267,0,0,0-7.635,5s-0.317,2.757-3.818,2-25.726,10-25.726,10,19.987-15.593,18.092-16.005a10.1,10.1,0,0,1-2.863-1C253.188,224.225,240,232,240,232l11-14s-12.549-1.609-15.754-.062-3.193,2.044-4.772,2S224.748,219.94,224.748,219.94Z" transform="translate(-98.813 -25)"/>
  <path class="cls-6" d="M254.841,237c13.041-.172,20.639,6,25.594,13.926q0.159,0.474.316,0.949h0.158v0.317h0.158v0.316h0.158q0.159,0.474.316,0.949H281.7v0.475h0.158v0.317h0.158q0.079,0.395.158,0.791h0.158q0.159,0.791.316,1.582h0.158V257.1h0.158v0.633h0.158v0.633h0.158v0.791h0.158v0.792H283.6v1.107h0.158v1.741h0.158a10.035,10.035,0,0,1-.158,3.323q-0.079,1.423-.158,2.848a53.374,53.374,0,0,1-1.9,6.489h-0.158q-0.158.474-.316,0.949h-0.158v0.316h-0.158v0.317h-0.158q-0.157.474-.316,0.949l-0.316.159q-0.078.317-.158,0.633H279.8q-0.078.237-.158,0.474l-0.316.159v0.316h-0.158c-0.052.158-.105,0.317-0.158,0.475l-0.316.158v0.317l-0.315.158q-0.079.237-.158,0.475l-0.632.474V282.1l-1.106.949v0.317l-0.948.791-0.158.316h-0.316l-0.948,1.108H273.8l-0.474.633-0.474.158-0.158.317h-0.316c-0.053.1-.1,0.211-0.158,0.316l-0.474.159v0.158H271.43c-0.053.105-.105,0.211-0.158,0.316h-0.316l-0.158.317-0.632.158-0.158.317-0.948.316V288.9h-0.316v0.159h-0.316v0.158l-0.948.316V289.7h-0.474v0.158H266.69v0.158h-0.474v0.158H265.9v0.159l-4.9,1.265-2.844.159v0.158a10,10,0,0,1-3.318-.158L252,291.594v-0.158h-0.79v-0.158h-0.79V291.12h-0.632v-0.158h-0.631V290.8H248.68v-0.158h-0.632v-0.158l-0.948-.158V290.17h-0.316v-0.158H246.31v-0.158h-0.316V289.7H245.52v-0.159l-0.948-.316v-0.158h-0.316V288.9H243.94v-0.158h-0.316l-0.316-.316h-0.316l-0.158-.317-0.632-.158V287.8l-0.474-.159c-0.053-.1-0.105-0.211-0.158-0.316h-0.316v-0.158l-0.474-.159c-0.053-.105-0.1-0.211-0.158-0.316h-0.316l-0.158-.317-0.474-.158-0.474-.633h-0.316l-0.948-1.108H237.62q-0.394-.474-0.79-0.949l-0.316-.158v-0.317l-1.106-.949c-0.052-.158-0.1-0.317-0.158-0.475l-0.474-.316v-0.317l-0.473-.316v-0.317l-0.316-.158v-0.317l-0.316-.158-2.37-4.272v-0.475h-0.158v-0.317h-0.158v-0.474h-0.158v-0.317h-0.158V273.4h-0.158v-0.474h-0.158q-0.079-.555-0.158-1.108h-0.158v-0.633h-0.158v-0.633h-0.158v-0.791h-0.158v-0.792h-0.158v-1.107h-0.158v-1.741h-0.158a10.035,10.035,0,0,1,.158-3.323q0.079-1.423.158-2.848a53.2,53.2,0,0,1,1.9-6.489h0.158q0.157-.474.316-0.949h0.158v-0.316h0.158v-0.317h0.158v-0.316l0.316-.317v-0.316l0.316-.159q0.078-.316.158-0.633H233.2q0.078-.237.158-0.474l0.316-.159v-0.316h0.158c0.052-.158.1-0.317,0.158-0.475l0.316-.158v-0.317l0.315-.158q0.079-.237.158-0.475l0.632-.474v-0.317l1.106-.949v-0.317l0.316-.158q0.4-.474.79-0.949h0.316l0.948-1.108,0.474-.158c0.1-.159.211-0.317,0.316-0.475h0.316l0.316-.475h0.316c0.053-.105.1-0.211,0.158-0.316H241.1l0.158-.317,4.266-2.374a52.992,52.992,0,0,1,6.477-1.9C252.707,237.107,254.393,237.392,254.841,237Zm-2.37,4.589a2.781,2.781,0,0,0-.316-0.791l-3.633.949a5.461,5.461,0,0,1-.158,1.266,1.851,1.851,0,0,1-.632.317v0.158h-0.79V243.33h-0.316v-0.158a1.081,1.081,0,0,0-.79-0.317,3.789,3.789,0,0,1-1.106.633v0.158h-0.316v0.159H244.1c-0.053.1-.105,0.211-0.158,0.316h-0.316l-0.158.317-0.474.158q0.079,0.553.158,1.107h-0.158c-0.053.211-.1,0.422-0.158,0.633l-0.632.159v0.158c-0.675.208-1-.5-1.264-0.475v0.158h-0.316l-0.632.792-1.58,1.424v0.158a0.26,0.26,0,0,1-.158.158,2.1,2.1,0,0,1,.474,1.266,0.881,0.881,0,0,0-.316.633l-0.632.159v0.158l-1.106-.158c-0.5,1.1-1.574,1.95-1.738,3.323a1.318,1.318,0,0,1,.632,1.424,3.08,3.08,0,0,0-.316.475,3.173,3.173,0,0,0-.474.316h-0.947c-0.076.789-1.106,3.214-.79,3.64a0.873,0.873,0,0,0,.632.316,1.848,1.848,0,0,1,0,1.741l-1.106.475v3.639a2.008,2.008,0,0,1,1.106.633h0.158c0.052,0.317.1,0.633,0.158,0.95a0.87,0.87,0,0,0-.316.633,2.775,2.775,0,0,0-.79.316l0.948,3.64a5.38,5.38,0,0,1,1.263.158,1.829,1.829,0,0,1,.316.633h0.158v0.791c-0.278.218,0.055,0.035-.158,0.317H235.25a1.089,1.089,0,0,0-.316.791,3.775,3.775,0,0,1,.632,1.108h0.158v0.316h0.158v0.317l0.316,0.158v0.316l0.316,0.159q0.079,0.237.158,0.474l1.106-.158v0.158l0.632,0.159q0.079,0.317.158,0.633h0.158c0.208,0.676-.5,1-0.474,1.266h0.158v0.316l0.79,0.633,1.422,1.583h0.158a0.263,0.263,0,0,1,.158.158,2.1,2.1,0,0,1,1.264-.475,0.878,0.878,0,0,0,.632.317c0.053,0.211.1,0.422,0.158,0.633h0.158q-0.079.553-.158,1.107c1.1,0.5,1.947,1.577,3.318,1.741a1.315,1.315,0,0,1,1.422-.633,2.958,2.958,0,0,0,.474.316,3.056,3.056,0,0,0,.316.475v0.95c0.787,0.076,3.209,1.107,3.633.791a0.878,0.878,0,0,0,.316-0.633,1.836,1.836,0,0,1,1.738,0l0.474,1.108h3.634a2,2,0,0,1,.632-1.108v-0.158l0.948-.159a0.874,0.874,0,0,0,.632.317,2.781,2.781,0,0,0,.316.791l3.633-.949a5.461,5.461,0,0,1,.158-1.266,1.851,1.851,0,0,1,.632-0.317v-0.158h0.79c0.218,0.279.035-.055,0.316,0.158v0.158a1.081,1.081,0,0,0,.79.317,3.789,3.789,0,0,1,1.106-.633v-0.158h0.316v-0.159H268.9c0.053-.105.105-0.211,0.158-0.316h0.316l0.158-.317,0.474-.158q-0.079-.553-0.158-1.107h0.158c0.053-.211.105-0.422,0.158-0.633l0.632-.159v-0.158c0.675-.208,1,0.5,1.264.475v-0.158a7.94,7.94,0,0,0,2.528-2.532h0.158v-0.159l-0.316-.158c-0.053-.316-0.106-0.633-0.158-0.949a0.881,0.881,0,0,0,.316-0.633l0.632-.159v-0.158l1.106,0.158c0.5-1.1,1.574-1.95,1.738-3.323a1.318,1.318,0,0,1-.632-1.424,3.08,3.08,0,0,0,.316-0.475,3.173,3.173,0,0,0,.474-0.316h0.947c0.076-.789,1.106-3.214.79-3.64a0.873,0.873,0,0,0-.632-0.316,2.594,2.594,0,0,1-.158-1.583,1.387,1.387,0,0,0,.316-0.316l0.948-.317v-3.639a2.008,2.008,0,0,1-1.106-.633h-0.158c-0.052-.317-0.105-0.633-0.158-0.95a0.87,0.87,0,0,0,.316-0.633,2.775,2.775,0,0,0,.79-0.316l-0.948-3.64a5.38,5.38,0,0,1-1.263-.158,1.829,1.829,0,0,1-.316-0.633h-0.158v-0.791c0.278-.218-0.055-0.035.158-0.317h0.158a1.089,1.089,0,0,0,.316-0.791,3.775,3.775,0,0,1-.632-1.108h-0.158V252.35h-0.158v-0.317c-0.106-.052-0.211-0.1-0.316-0.158v-0.316l-0.316-.159q-0.079-.237-0.158-0.474l-1.106.158v-0.158l-0.632-.159q-0.079-.316-0.158-0.633h-0.158c-0.208-.676.5-1,0.474-1.266H274.59v-0.316l-0.79-.633-1.422-1.583h-0.316v-0.158a2.1,2.1,0,0,1-1.264.475,0.878,0.878,0,0,0-.632-0.317c-0.053-.211-0.105-0.422-0.158-0.633H269.85q0.079-.554.158-1.107c-1.1-.5-1.947-1.577-3.318-1.741a1.315,1.315,0,0,1-1.422.633,2.958,2.958,0,0,0-.474-0.316,3.056,3.056,0,0,0-.316-0.475v-0.95c-0.787-.076-3.209-1.107-3.633-0.791a0.878,0.878,0,0,0-.316.633,1.836,1.836,0,0,1-1.738,0l-0.474-1.108h-3.634a2,2,0,0,1-.632,1.108v0.158l-0.948.159A0.874,0.874,0,0,0,252.471,241.589Zm4.266,18.04,0.79,0.158a11.8,11.8,0,0,1,.474-3.006q0.079-.949.158-1.9c0.872-2.531,1.708-5.3,2.686-7.754,0.052-.317.1-0.633,0.158-0.95h0.158V245.7h0.158v-0.474h0.158v-0.475h0.158v-0.475h0.158v-0.474h0.158V243.33h0.158c0.052-.317.105-0.633,0.158-0.95h0.158a7.089,7.089,0,0,1-.474,2.058v0.791c-0.362,1.145-.589,2.676-0.948,3.8q-0.079.791-.158,1.582c-0.366,1.162-.584,2.635-0.948,3.8V255.2h-0.158c-0.053.317-.106,0.633-0.158,0.95h-0.158v0.316h-0.158v0.475h-0.158v0.316h-0.158v0.475h-0.158v0.317h-0.158v0.474h-0.158L258,259.946l0.79,0.158,0.474-1.424h0.158q0.078-.4.158-0.792h0.158v-0.316H259.9q0.315-.949.632-1.9h0.158c0.052-.158.1-0.317,0.158-0.475l0.316-.158q0.078-.316.158-0.633c0.1-.053.21-0.106,0.316-0.158v-0.317l0.316-.158v-0.317l0.316-.158v-0.316l0.316-.159v-0.316l0.316-.158v-0.317h0.158q0.078-.237.158-0.474l0.316-.159v-0.316l0.315-.158v-0.317l0.316-.158v-0.317c0.106-.052.211-0.1,0.316-0.158q0.079-.317.158-0.633l0.316-.158v-0.317c0.106-.052.211-0.1,0.316-0.158v-0.316h0.158q0.079-.238.158-0.475l0.316-.158v-0.317l0.316-.158v-0.317c0.106-.052.211-0.1,0.316-0.158V246.5l0.316-.159,0.948-1.74h0.158v0.316a1.268,1.268,0,0,0-.316.633H267.48v0.317h-0.158v0.316h-0.158V246.5h-0.158v0.316h-0.158v0.317H266.69q-0.078.317-.158,0.633h-0.158q-0.078.317-.158,0.633h-0.158v0.316H265.9v0.317h-0.158v0.316h-0.158v0.317h-0.158v0.316l-0.316.317v0.316c-0.105.053-.21,0.106-0.316,0.158q-0.157.476-.316,0.95H264.32q-0.078.316-.158,0.633H264v0.316h-0.158v0.317h-0.157V253.3h-0.158v0.317h-0.158v0.316h-0.158q-0.079.317-.158,0.633H262.9v0.317h-0.158V255.2h-0.158v0.317h-0.158v0.316l-0.316.317q-0.079.316-.158,0.633l-0.316.158q-0.079.237-.158,0.475L261,257.73v0.317l-0.474.316v0.317l-0.474.316a3.465,3.465,0,0,1-.948,1.266,0.273,0.273,0,0,0,.158.158c0.105,0.158.21,0.317,0.316,0.475a0.279,0.279,0,0,0,.158-0.158,3.425,3.425,0,0,0,.948-1.266l0.632-.475V258.68q0.315-.238.632-0.475c0.052-.158.1-0.317,0.158-0.475l0.316-.158v-0.317h0.158l0.474-.633h0.316l1.105-1.266h0.316l1.106-1.266h0.316q0.633-.711,1.264-1.424H267.8L268.9,251.4h0.316l0.316-.474,0.632-.475,0.158-.317h0.316l0.158-.316a4.125,4.125,0,0,1,1.422-1.108,4.105,4.105,0,0,1-1.106,1.424l-0.316.159v0.316l-0.316.158-0.474.633-0.474.317v0.316l-1.264,1.108v0.316l-1.264,1.108v0.317l-1.422,1.266v0.316l-0.948.791-0.947,1.266h-0.316c-0.053.106-.106,0.211-0.158,0.317l-0.474.158-0.474.633h-0.316l-0.474.633h-0.316c-0.106.158-.211,0.317-0.316,0.475h-0.316V260.9l-0.474.316a0.278,0.278,0,0,0,.158.159l0.316,0.474a0.273,0.273,0,0,0,.158-0.158A1.419,1.419,0,0,0,261,261.37h0.316q0.157-.238.316-0.475h0.316c0.1-.158.21-0.317,0.316-0.475h0.316q0.157-.237.316-0.474h0.316q0.158-.239.316-0.475h0.315c0.106-.158.211-0.317,0.316-0.475l0.948-.316v-0.159l0.948-.316v-0.158l0.632-.159V257.73l0.632-.158v-0.158h0.316v-0.159h0.316V257.1h0.316v-0.158h0.316v-0.158H268.9v-0.159h0.316l0.316-.316h0.316l0.158-.317,0.632-.158v-0.158h0.316v-0.158h0.316v-0.159h0.316V255.2H271.9V255.04h0.316v-0.158l0.632-.159v-0.158l0.632-.158v-0.158l0.632-.159a9.049,9.049,0,0,1,2.212-1.107v0.158H276.17a4.983,4.983,0,0,1-1.106.633c-0.053.1-.106,0.211-0.158,0.316H274.59c-0.053.106-.106,0.211-0.158,0.317h-0.316c-0.053.1-.106,0.211-0.158,0.316h-0.316c-0.053.106-.106,0.211-0.158,0.317h-0.316c-0.053.105-.105,0.211-0.158,0.316h-0.316l-0.158.317H272.22c-0.053.1-.105,0.211-0.158,0.316h-0.316l-0.158.317-0.632.158-0.158.317h-0.316c-0.053.105-.105,0.211-0.158,0.316h-0.316l-0.158.317h-0.316l-0.158.316H269.06l-0.158.317h-0.316l-0.158.316h-0.316c-0.052.106-.105,0.211-0.158,0.317h-0.316c-0.052.105-.1,0.211-0.158,0.316h-0.316c-0.052.106-.1,0.211-0.158,0.317H266.69l-0.158.316-0.632.158c-0.052.106-.1,0.211-0.158,0.317l-0.474.158v0.158l-1.895.633v0.158h-0.316v0.159l-0.79.158v0.158l-1.422.475c0.052,0.264.1,0.527,0.158,0.791l1.422-.475v-0.158H262.9v-0.158h0.316V262h0.474v-0.159H264v-0.158h0.474v-0.158h0.316V261.37l0.948-.159v-0.158l1.58-.158c1.594-.5,3.629-0.759,5.214-1.266l1.58-.158v-0.158h0.79v-0.159h0.79V259h0.79v-0.158h0.632V258.68a2.281,2.281,0,0,1,1.421,0,4.122,4.122,0,0,0-1.421.474h-0.474v0.159H276.17v0.158H275.7v0.158h-0.474v0.158h-0.474v0.159h-0.474V260.1H273.8v0.158h-0.474v0.158h-0.474v0.158h-0.474v0.159H271.9V260.9H271.43v0.158l-0.948.158a28.207,28.207,0,0,1-9.321,2.216c0.052,0.264.105,0.527,0.158,0.791l5.371-.633v0.158h2.686V263.9h2.844v0.158h2.686v0.158h2.844v0.158h0.474a3.223,3.223,0,0,1,1.579.159l-14.061.791v-0.158l-4.423-.475c-0.053.264-.106,0.527-0.158,0.791a11.762,11.762,0,0,1,3,.475l1.9,0.158c2.515,0.87,5.3,1.714,7.742,2.69l0.948,0.158v0.159h0.474v0.158H275.7v0.158h0.474V269.6h0.474v0.159h0.474v0.158h0.474v0.158l0.947,0.158v0.159a7.021,7.021,0,0,1-2.053-.475H275.7c-1.144-.362-2.672-0.589-3.792-0.95l-1.58-.158c-1.16-.366-2.631-0.584-3.792-0.949h-0.79V267.7l-0.948-.159v-0.158h-0.316v-0.158H264v-0.158h-0.315v-0.159h-0.474V266.75H262.9v-0.158h-0.474v-0.158L261,265.959c-0.053.264-.106,0.527-0.158,0.791l1.422,0.475v0.158l0.79,0.158V267.7h0.316v0.158l1.895,0.633v0.158l0.474,0.158c0.053,0.106.106,0.211,0.158,0.317l0.632,0.158,0.158,0.316h0.316c0.053,0.106.106,0.211,0.158,0.317h0.316c0.053,0.1.106,0.211,0.158,0.316h0.316c0.053,0.106.106,0.211,0.158,0.317h0.316l0.158,0.316H268.9v0.159l0.474,0.158,0.158,0.316h0.316l0.158,0.317h0.316c0.053,0.1.1,0.211,0.158,0.316H270.8l0.158,0.317,0.632,0.158,0.158,0.317h0.316c0.053,0.1.1,0.211,0.158,0.316h0.316V273.4l0.474,0.159c0.053,0.105.105,0.211,0.158,0.316h0.316c0.052,0.106.105,0.211,0.158,0.317h0.316c0.052,0.105.1,0.211,0.158,0.316h0.316c0.052,0.106.1,0.211,0.158,0.317l1.738,0.949v0.158h-0.316a1.265,1.265,0,0,0-.632-0.316v-0.158h-0.316V275.3h-0.316v-0.158h-0.316v-0.158h-0.316v-0.158H273.8v-0.159l-0.632-.158v-0.158l-0.632-.158v-0.159l-2.528-1.107-0.158-.317-0.948-.316V272.13l-0.632-.158v-0.158h-0.316v-0.158h-0.316V271.5h-0.316v-0.158h-0.316v-0.158l-0.632-.158v-0.159h-0.316v-0.158h-0.316v-0.158h-0.316V270.39H265.11l-0.316-.317-0.632-.158c-0.052-.106-0.1-0.211-0.158-0.317l-0.473-.158q-0.159-.237-0.316-0.475H262.9q-0.159-.237-0.316-0.474h-0.316c-0.106-.158-0.211-0.317-0.316-0.475a3.441,3.441,0,0,1-1.264-.949,0.271,0.271,0,0,0-.158.158l-0.474.316a0.278,0.278,0,0,0,.158.159,3.412,3.412,0,0,0,1.264.949l0.474,0.633h0.316l0.474,0.633,0.474,0.158c0.052,0.106.105,0.211,0.158,0.317h0.316v0.158l0.631,0.475v0.316l1.264,1.108v0.316l1.422,1.266v0.317l1.264,1.108v0.316l1.264,1.108v0.316l0.474,0.317,0.474,0.633L270.8,278.3v0.316l0.316,0.159a4.117,4.117,0,0,1,1.106,1.424,4.113,4.113,0,0,1-1.422-1.108l-0.158-.316h-0.316l-0.158-.317-0.632-.475-0.316-.474H268.9l-1.106-1.266H267.48q-0.631-.713-1.264-1.424H265.9l-1.106-1.266h-0.316l-0.789-.95-1.264-.949v-0.317l-0.316-.158c-0.053-.158-0.106-0.317-0.158-0.475q-0.317-.237-0.632-0.475v-0.316l-0.632-.475v-0.316l-0.474-.317v-0.316h-0.158c-0.106-.158-0.211-0.317-0.316-0.475a0.279,0.279,0,0,0-.158.158l-0.474.317a0.276,0.276,0,0,0,.158.158,1.419,1.419,0,0,0,.316.316v0.317l0.474,0.316v0.317l0.474,0.316v0.317L261,270.864v0.317l0.474,0.316v0.317l0.474,0.316v0.317l0.316,0.316v0.317h0.158V273.4h0.158q0.157,0.476.316,0.95h0.158q0.078,0.317.158,0.633h0.158q0.078,0.317.158,0.633h0.158v0.316h0.157v0.317H264v0.316h0.158v0.317h0.158v0.316h0.158v0.317l0.316,0.316v0.317l0.316,0.158q0.079,0.316.158,0.633h0.158v0.316h0.158v0.317h0.158v0.316H265.9V280.2h0.158q0.079,0.316.158,0.633h0.158q0.079,0.317.158,0.633h0.158q0.079,0.317.158,0.633a9.033,9.033,0,0,1,1.106,2.215H267.8v-0.158a4.972,4.972,0,0,1-.632-1.108l-0.316-.158v-0.316l-0.316-.159V282.1l-0.316-.158v-0.317l-0.316-.158V281.15l-0.316-.158v-0.316l-0.316-.159V280.2l-0.316-.158v-0.317l-0.316-.158q-0.078-.316-0.158-0.633l-0.316-.158V278.46l-0.316-.158v-0.317l-0.315-.158v-0.316l-0.316-.159v-0.316l-0.316-.158v-0.317l-0.316-.158v-0.317l-0.316-.158v-0.316l-0.316-.158v-0.317l-0.316-.158v-0.317c-0.106-.052-0.211-0.1-0.316-0.158q-0.079-.317-0.158-0.633l-0.316-.158c-0.053-.158-0.106-0.317-0.158-0.475h-0.158q-0.317-.95-0.632-1.9h-0.158v-0.316h-0.158q-0.079-.4-0.158-0.792h-0.158l-0.474-1.424-0.79.158,0.474,1.425h0.158v0.474h0.158v0.317h0.158v0.475h0.158v0.316h0.158v0.475h0.158v0.316h0.158c0.052,0.317.1,0.633,0.158,0.95H259.9q0.078,0.791.158,1.582c0.5,1.6.757,3.635,1.264,5.222q0.078,0.792.158,1.583h0.158v0.791h0.158v0.791h0.158v0.791h0.158v0.633h0.158a2.309,2.309,0,0,1,0,1.425,4.188,4.188,0,0,0-.474-1.425v-0.474h-0.158v-0.475h-0.158v-0.475h-0.158v-0.474h-0.158v-0.475H261v-0.475h-0.158v-0.475h-0.158v-0.474h-0.158v-0.475h-0.158v-0.475h-0.158v-0.475h-0.158V279.41H259.9v-0.475h-0.158c-0.053-.317-0.106-0.633-0.158-0.95a27.03,27.03,0,0,1-2.054-8.861l-0.79.158q0.316,2.69.632,5.38h-0.158v2.69h-0.158V280.2H256.9v2.69h-0.158v2.848h-0.158v0.475a3.252,3.252,0,0,1-.158,1.583q-0.394-7.043-.79-14.084h0.158l0.474-4.431-0.79-.158A11.8,11.8,0,0,1,255,272.13q-0.079.949-.158,1.9c-0.872,2.531-1.708,5.3-2.686,7.754-0.052.317-.1,0.633-0.158,0.95h-0.158v0.475h-0.158v0.474h-0.158v0.475h-0.158v0.475h-0.158v0.474h-0.158v0.475h-0.158c-0.052.317-.1,0.633-0.158,0.95h-0.158a7.089,7.089,0,0,1,.474-2.058v-0.791c0.362-1.145.589-2.676,0.948-3.8q0.079-.79.158-1.582c0.366-1.162.584-2.635,0.948-3.8v-0.791h0.158c0.053-.317.106-0.633,0.158-0.95h0.158v-0.316h0.158v-0.475h0.158v-0.316h0.158v-0.475h0.158v-0.317h0.158V270.39h0.158L255,268.965l-0.79-.158-0.474,1.424h-0.158q-0.078.4-.158,0.792h-0.158v0.316H253.1q-0.315.95-.632,1.9h-0.158c-0.052.158-.1,0.317-0.158,0.475l-0.316.158q-0.078.317-.158,0.633c-0.105.053-.21,0.106-0.316,0.158v0.317l-0.316.158v0.317l-0.316.158v0.316l-0.316.158V276.4l-0.316.158v0.317h-0.158q-0.078.237-.158,0.474l-0.316.159v0.316l-0.315.158V278.3l-0.316.158v0.317l-0.316.158q-0.079.317-.158,0.633l-0.316.158v0.317l-0.316.158v0.316h-0.158q-0.08.238-.158,0.475l-0.316.158v0.317l-0.316.158v0.317l-0.316.158v0.316l-0.316.159-0.948,1.74h-0.158V284a5.409,5.409,0,0,0,.79-1.583h0.158q0.078-.317.158-0.633h0.158q0.078-.317.158-0.633h0.158v-0.316h0.158v-0.317h0.158V280.2H247.1v-0.317h0.158v-0.316h0.158v-0.317h0.158v-0.316l0.316-.317V278.3l0.316-.158v-0.317l0.316-.316v-0.317h0.158v-0.316h0.158q0.078-.317.158-0.633h0.158c0.052-.211.1-0.422,0.157-0.633h0.158q0.079-.317.158-0.633h0.158v-0.317h0.158v-0.316H250.1v-0.317h0.158v-0.316h0.158V273.4h0.158V273.08h0.158v-0.317l0.316-.316V272.13l0.474-.316V271.5l0.474-.316v-0.317l0.474-.316v-0.317l0.474-.316V269.6l0.474-.316v-0.317h0.158q0.159-.237.316-0.474a1.068,1.068,0,0,1-.474-0.475,0.279,0.279,0,0,0-.158.158,3.425,3.425,0,0,0-.948,1.266l-0.632.475v0.316q-0.315.238-.632,0.475c-0.052.158-.105,0.317-0.158,0.475l-0.316.158v0.317h-0.158l-0.474.633h-0.316l-1.105,1.266h-0.316l-1.106,1.266h-0.316q-0.633.711-1.264,1.424H245.2l-1.106,1.266h-0.316l-0.316.474-0.632.475-0.158.317H242.36c-0.053.105-.105,0.211-0.158,0.316a4.125,4.125,0,0,1-1.422,1.108,4.117,4.117,0,0,1,1.106-1.424l0.316-.159V278.3l0.316-.158,0.474-.633,0.474-.317v-0.316l1.264-1.108v-0.316l1.264-1.108v-0.317l1.422-1.266v-0.316l1.264-1.108v-0.316l0.631-.475V270.39h0.316c0.053-.106.106-0.211,0.158-0.317l0.474-.158,0.474-.633h0.316l0.474-.633h0.316c0.106-.158.211-0.317,0.316-0.475h0.316l0.474-.633a1.065,1.065,0,0,1-.474-0.474,0.273,0.273,0,0,0-.158.158,1.419,1.419,0,0,0-.316.316h-0.316c-0.105.158-.21,0.317-0.316,0.475h-0.316c-0.105.158-.21,0.317-0.316,0.475h-0.316q-0.157.237-.316,0.474h-0.316q-0.157.239-.316,0.475h-0.315c-0.106.158-.211,0.317-0.316,0.475l-0.948.316v0.159l-0.948.316v0.158l-0.632.159v0.158l-0.632.158V271.5h-0.316v0.159h-0.316v0.158H244.73v0.158h-0.316v0.158H244.1v0.159h-0.316l-0.316.316H243.15l-0.158.317-0.632.158v0.158h-0.316V273.4h-0.316v0.159h-0.316v0.158H241.1v0.158H240.78v0.158l-0.632.159v0.158l-0.632.158v0.158l-0.632.159a9.049,9.049,0,0,1-2.212,1.107V275.77h0.158a4.983,4.983,0,0,1,1.106-.633l0.158-.316h0.316c0.053-.106.106-0.211,0.158-0.317h0.316c0.053-.105.106-0.211,0.158-0.316h0.316c0.053-.106.106-0.211,0.158-0.317h0.316c0.053-.1.105-0.211,0.158-0.316h0.316l0.158-.317h0.316c0.053-.105.1-0.211,0.158-0.316h0.316l0.158-.317,0.632-.158,0.158-.317h0.316c0.053-.105.1-0.211,0.158-0.316h0.316l0.158-.317h0.316l0.158-.316h0.316l0.158-.317h0.316l0.158-.316h0.316c0.052-.106.1-0.211,0.158-0.317h0.316c0.052-.105.105-0.211,0.158-0.316h0.316c0.052-.106.1-0.211,0.158-0.317h0.316c0.052-.105.1-0.211,0.158-0.316l0.632-.158c0.052-.106.105-0.211,0.158-0.317l0.474-.158v-0.158l1.9-.633V267.7h0.316v-0.159l0.79-.158v-0.158l1.422-.475c-0.052-.264-0.1-0.527-0.158-0.791l-1.422.475v0.158H250.1v0.158h-0.316v0.158h-0.474v0.159H249v0.158h-0.474v0.158h-0.316v0.158l-0.948.159v0.158l-1.58.158c-1.594.5-3.629,0.759-5.214,1.266l-1.58.158V269.6h-0.79v0.159H237.3v0.158h-0.79v0.158h-0.632v0.158a2.281,2.281,0,0,1-1.421,0,4.122,4.122,0,0,0,1.421-.474h0.474V269.6h0.474V269.44H237.3v-0.158h0.474v-0.158h0.474v-0.159h0.474v-0.158H239.2v-0.158h0.474v-0.158h0.474v-0.159h0.474v-0.158H241.1v-0.158h0.474v-0.158l0.948-.158a28.207,28.207,0,0,1,9.321-2.216c-0.052-.264-0.1-0.527-0.158-0.791l-5.371.633v-0.158h-2.686v-0.159H240.78v-0.158h-2.686v-0.158H235.25v-0.158h-0.474a3.223,3.223,0,0,1-1.579-.159l14.061-.791v0.158l4.423,0.475c0.053-.264.106-0.527,0.158-0.791a11.762,11.762,0,0,1-3-.475l-1.9-.158c-2.515-.87-5.3-1.714-7.742-2.69l-0.948-.158v-0.159h-0.474v-0.158H237.3v-0.158H236.83v-0.158h-0.474v-0.159h-0.474V259h-0.474v-0.158l-0.947-.158v-0.159a7.021,7.021,0,0,1,2.053.475h0.79c1.144,0.362,2.672.589,3.792,0.95l1.58,0.158c1.16,0.366,2.631.584,3.792,0.949h0.79v0.158l0.948,0.159v0.158h0.316v0.158H249v0.158h0.315V262h0.474v0.158H250.1v0.158h0.474v0.158L252,262.952c0.053-.264.106-0.527,0.158-0.791l-1.422-.475v-0.158l-0.79-.158v-0.159h-0.316v-0.158l-1.9-.633v-0.158l-0.474-.158c-0.053-.106-0.106-0.211-0.158-0.317l-0.632-.158v-0.158l-0.474-.158c-0.053-.106-0.106-0.211-0.158-0.317H245.52c-0.053-.1-0.106-0.211-0.158-0.316h-0.316c-0.053-.106-0.106-0.211-0.158-0.317h-0.316v-0.158l-0.474-.158-0.158-.317h-0.316l-0.158-.316H243.15l-0.158-.317h-0.316c-0.053-.1-0.1-0.211-0.158-0.316H242.2l-0.158-.317-0.632-.158v-0.158l-0.474-.159c-0.053-.105-0.1-0.211-0.158-0.316h-0.316l-0.158-.317H239.99c-0.053-.1-0.105-0.211-0.158-0.316h-0.316c-0.052-.106-0.1-0.211-0.158-0.317h-0.316c-0.052-.105-0.1-0.211-0.158-0.316h-0.316v-0.158l-0.474-.159c-0.052-.1-0.1-0.211-0.158-0.316a3.517,3.517,0,0,1-1.264-.791h0.316a1.265,1.265,0,0,0,.632.316v0.158h0.316v0.159h0.316v0.158h0.316v0.158h0.316v0.158H239.2v0.159l0.632,0.158v0.158l0.632,0.158v0.159l2.528,1.107,0.158,0.317,0.948,0.316v0.159l0.632,0.158V257.1h0.316v0.158h0.316v0.159h0.316v0.158h0.316v0.158l0.632,0.158v0.159h0.316v0.158h0.316v0.158h0.316v0.158h0.316l0.316,0.317L248.838,259c0.052,0.106.105,0.211,0.158,0.317l0.473,0.158q0.159,0.237.316,0.475H250.1q0.159,0.237.316,0.474h0.316c0.106,0.158.211,0.317,0.316,0.475a3.441,3.441,0,0,1,1.264.949,0.271,0.271,0,0,0,.158-0.158,1.058,1.058,0,0,0,.474-0.475l-0.474-.316v-0.158h-0.316c-0.1-.158-0.21-0.317-0.316-0.475h-0.316l-0.474-.633h-0.316L250.259,259l-0.474-.158c-0.052-.106-0.1-0.211-0.158-0.317h-0.316l-0.947-1.266-0.948-.791v-0.316l-1.422-1.266v-0.317l-1.264-1.108v-0.316l-1.264-1.108v-0.316l-0.474-.317-0.474-.633-0.316-.158v-0.316l-0.316-.159a4.117,4.117,0,0,1-1.106-1.424,4.113,4.113,0,0,1,1.422,1.108c0.053,0.1.1,0.211,0.158,0.316h0.316l0.158,0.317,0.632,0.475,0.316,0.474H244.1l1.106,1.266h0.316q0.631,0.712,1.264,1.424H247.1l1.106,1.266h0.316l0.789,0.95,1.264,0.949v0.317l0.316,0.158c0.053,0.158.106,0.317,0.158,0.475q0.316,0.237.632,0.475V259l0.632,0.475v0.316l0.474,0.317v0.316h0.158c0.106,0.158.211,0.317,0.316,0.475a0.279,0.279,0,0,0,.158-0.158,1.063,1.063,0,0,0,.474-0.475,3.5,3.5,0,0,1-.948-1.266l-0.474-.316v-0.317L252,258.047V257.73l-0.474-.316V257.1l-0.474-.316v-0.317l-0.316-.316v-0.317h-0.158v-0.316h-0.158q-0.157-.475-0.316-0.95h-0.158q-0.078-.316-0.158-0.633h-0.158q-0.078-.316-0.158-0.633h-0.158v-0.316h-0.157v-0.317H249V252.35h-0.158v-0.317H248.68v-0.316h-0.158V251.4l-0.316-.316v-0.317c-0.106-.052-0.211-0.1-0.316-0.158q-0.079-.317-0.158-0.633h-0.158V249.66h-0.158v-0.317h-0.158v-0.316H247.1V248.71h-0.158q-0.079-.317-0.158-0.633h-0.158q-0.079-.316-0.158-0.633H246.31q-0.079-.316-0.158-0.633a8.946,8.946,0,0,1-1.106-2.215H245.2v0.158a4.972,4.972,0,0,1,.632,1.108l0.316,0.158v0.316l0.316,0.159v0.316c0.105,0.053.21,0.106,0.316,0.158v0.317l0.316,0.158v0.317l0.316,0.158v0.316l0.316,0.159v0.316c0.1,0.053.21,0.106,0.316,0.158v0.317l0.316,0.158q0.078,0.317.158,0.633c0.105,0.053.21,0.106,0.316,0.158v0.317l0.316,0.158v0.317l0.315,0.158V251.4l0.316,0.159v0.316l0.316,0.158v0.317l0.316,0.158v0.316l0.316,0.159V253.3l0.316,0.158v0.317l0.316,0.158v0.317c0.106,0.052.211,0.105,0.316,0.158q0.079,0.316.158,0.633l0.316,0.158c0.053,0.158.106,0.317,0.158,0.475h0.158q0.316,0.949.632,1.9h0.158v0.316h0.158q0.079,0.4.158,0.792h0.158l0.474,1.424,0.79-.158-0.474-1.425h-0.158v-0.474h-0.158V257.73h-0.158v-0.475h-0.158v-0.316h-0.158v-0.475h-0.158v-0.316h-0.158c-0.052-.317-0.105-0.633-0.158-0.95H253.1q-0.078-.791-0.158-1.582c-0.5-1.6-.757-3.635-1.264-5.222q-0.078-.792-0.158-1.583h-0.158V246.02h-0.158v-0.791h-0.158v-0.791h-0.158v-0.633h-0.158a2.309,2.309,0,0,1,0-1.425,4.188,4.188,0,0,0,.474,1.425v0.474h0.158v0.475h0.158v0.475h0.158V245.7h0.158v0.475H252v0.475h0.158v0.475h0.158V247.6h0.158v0.475h0.158v0.475h0.158v0.475h0.158V249.5H253.1v0.475h0.158c0.053,0.317.106,0.633,0.158,0.95a27.03,27.03,0,0,1,2.054,8.861l0.79-.158q-0.316-2.69-.632-5.38h0.158v-2.69h0.158V248.71h0.158v-2.69h0.158v-2.848h0.158V242.7a3.252,3.252,0,0,1,.158-1.583q0.394,7.041.79,14.084h-0.158Zm-6.32-17.723c0.18,0.18.063,0,.158,0.316h-0.158v-0.316Zm12.008,0c0.179,0.18.063,0,.158,0.316h-0.158v-0.316Zm-17.537,2.373c0.18,0.181.063,0,.158,0.317h-0.158v-0.317Zm23.066,0c0.18,0.181.063,0,.158,0.317h-0.158v-0.317Zm-31.6,8.545h0.316v0.159C236.355,252.892,236.536,253,236.356,252.824Zm39.972,0h0.316v0.159C276.326,252.892,276.507,253,276.328,252.824Zm-42.341,5.539H234.3v0.158C233.985,258.431,234.166,258.54,233.987,258.363Zm44.71,0h0.316v0.158C278.7,258.431,278.877,258.54,278.7,258.363Zm-44.71,12.027H234.3v0.158C233.985,270.457,234.166,270.567,233.987,270.39Zm44.71,0h0.316v0.158C278.7,270.457,278.877,270.567,278.7,270.39Zm-42.341,5.538h0.316v0.158C236.355,276,236.536,276.105,236.356,275.928Zm39.972,0h0.316v0.158C276.326,276,276.507,276.105,276.328,275.928Zm-31.44,8.387c0.18,0.181.063,0,.158,0.317h-0.158v-0.317Zm23.066,0c0.18,0.181.063,0,.158,0.317h-0.158v-0.317Zm-17.537,2.374c0.18,0.18.063,0,.158,0.316h-0.158v-0.316Zm12.008,0c0.179,0.18.063,0,.158,0.316h-0.158v-0.316Z" transform="translate(-98.813 -25)"/>
</svg>
