<svg id="Fallow" xmlns="http://www.w3.org/2000/svg" width="473" height="473" viewBox="0 0 473 473">
  <metadata><?xpacket begin="﻿" id="W5M0MpCehiHzreSzNTczkc9d"?>
<x:xmpmeta xmlns:x="adobe:ns:meta/" x:xmptk="Adobe XMP Core 5.6-c140 79.160451, 2017/05/06-01:08:21        ">
   <rdf:RDF xmlns:rdf="http://www.w3.org/1999/02/22-rdf-syntax-ns#">
      <rdf:Description rdf:about=""/>
   </rdf:RDF>
</x:xmpmeta>
                                                                                                    
                                                                                                    
                                                                                                    
                                                                                                    
                                                                                                    
                                                                                                    
                                                                                                    
                                                                                                    
                                                                                                    
                                                                                                    
                                                                                                    
                                                                                                    
                                                                                                    
                                                                                                    
                                                                                                    
                                                                                                    
                                                                                                    
                                                                                                    
                                                                                                    
                                                                                                    
                           
<?xpacket end="w"?></metadata>
<defs>
    <style>
      .cls-1 {
        fill: #faf0f4;
      }

      .cls-2 {
        fill: #efdbe4;
      }

      .cls-2, .cls-3, .cls-4, .cls-6 {
        fill-rule: evenodd;
      }

      .cls-3 {
        fill: #f5dde7;
      }

      .cls-4 {
        fill: #edc7d6;
      }

      .cls-5 {
        fill: #f3dfe7;
      }

      .cls-6 {
        fill: #fff;
      }
    </style>
  </defs>
  <circle class="cls-1" cx="236.5" cy="236.5" r="236.5"/>
  <path class="cls-2" d="M634,875l124,84s-43.141,125.84-189,145L426,975Z" transform="translate(-303 -633)"/>
  <path class="cls-3" d="M475,912s-52.454-6.344-47-17c0,0,23.727-10.417,21-74,0,0,1.58-54.3,54-57,0,0,26.1-3.945,42,6l53,116-7,89H427s-7.517-1.916-9-8V956s0.734-11.527,11-17Z" transform="translate(-303 -633)"/>
  <path class="cls-4" d="M493,974s-5.6-29.135,22-34c0,0,32.043-1.544,32-15,0,0,2.892-6.769-9-13,0,0-13.944-8.7-14-26,0,0,2.59-11-5.617-15.785-0.125-.073-0.253-0.145-0.383-0.215-8.67-4.662-21.873-27.281-11-36,0,0,8.569-4.522,6-13,0,0,5.053-44.939,36-54,0,0,42.1-14.088,73,8,0,0,21.42,16.062,20,52,0,0,19.18,10.892,5,32l-14,16-2,14-8,87Z" transform="translate(-303 -633)"/>
  <circle class="cls-5" cx="312.5" cy="297.5" r="45.5"/>
  <path class="cls-6" d="M602.3,927.817l5.966,11.592s9.7-23.557,24.983-31.409c-0.373,5.609-1.864,10.47.746,16.452-6.712,1.5-20.508,18.322-24.983,26.548-6.339-7.852-13.8-13.835-19.017-15.7Z" transform="translate(-303 -633)"/>
</svg>
