<svg id="Forgot" xmlns="http://www.w3.org/2000/svg" width="336" height="133.594" viewBox="0 0 336 133.594">
  <metadata><?xpacket begin="﻿" id="W5M0MpCehiHzreSzNTczkc9d"?>
<x:xmpmeta xmlns:x="adobe:ns:meta/" x:xmptk="Adobe XMP Core 5.6-c140 79.160451, 2017/05/06-01:08:21        ">
   <rdf:RDF xmlns:rdf="http://www.w3.org/1999/02/22-rdf-syntax-ns#">
      <rdf:Description rdf:about=""/>
   </rdf:RDF>
</x:xmpmeta>
                                                                                                    
                                                                                                    
                                                                                                    
                                                                                                    
                                                                                                    
                                                                                                    
                                                                                                    
                                                                                                    
                                                                                                    
                                                                                                    
                                                                                                    
                                                                                                    
                                                                                                    
                                                                                                    
                                                                                                    
                                                                                                    
                                                                                                    
                                                                                                    
                                                                                                    
                                                                                                    
                           
<?xpacket end="w"?></metadata>
<defs>
    <style>
      .cls-1, .cls-3, .cls-6, .cls-8 {
        fill: none;
      }

      .cls-1, .cls-3, .cls-4 {
        stroke: #fff;
      }

      .cls-1, .cls-3, .cls-4, .cls-6 {
        stroke-width: 2px;
      }

      .cls-1, .cls-2, .cls-4, .cls-5, .cls-6, .cls-8, .cls-9 {
        fill-rule: evenodd;
      }

      .cls-2 {
        fill: #ed3431;
      }

      .cls-4, .cls-5 {
        fill: #fff;
      }

      .cls-6 {
        stroke: #ed3431;
      }

      .cls-7, .cls-9 {
        fill: #2a2e43;
      }

      .cls-8 {
        stroke: #2a2e43;
        stroke-width: 1px;
      }
    </style>
  </defs>
  <path id="Rounded_Rectangle_1" data-name="Rounded Rectangle 1" class="cls-1" d="M64.624,179.919h58.257a6.876,6.876,0,1,1,0,13.752H64.624A6.876,6.876,0,0,1,64.624,179.919Z" transform="translate(-33 -156)"/>
  <path id="Rounded_Rectangle_1_copy" data-name="Rounded Rectangle 1 copy" class="cls-2" d="M93.734,199.019h58.257a6.876,6.876,0,1,1,0,13.751H93.734A6.876,6.876,0,1,1,93.734,199.019Z" transform="translate(-33 -156)"/>
  <path id="Rounded_Rectangle_1_copy_2" data-name="Rounded Rectangle 1 copy 2" class="cls-2" d="M296.358,205.894h21.481a5.731,5.731,0,0,1,5.73,5.73h0a5.73,5.73,0,0,1-5.73,5.73H296.358a5.73,5.73,0,0,1-5.73-5.73h0A5.731,5.731,0,0,1,296.358,205.894Z" transform="translate(-33 -156)"/>
  <rect id="Rounded_Rectangle_1_copy_3" data-name="Rounded Rectangle 1 copy 3" class="cls-3" x="267.594" y="62.875" width="40.594" height="11.469" rx="5.73" ry="5.73"/>
  <path class="cls-1" d="M34,228.814H60.046v2.292H34v-2.292Z" transform="translate(-33 -156)"/>
  <path class="cls-1" d="M75.367,228.814H86.092v2.292H75.367v-2.292Z" transform="translate(-33 -156)"/>
  <path class="cls-1" d="M272.243,174.571h48.262v2.292H272.243v-2.292Z" transform="translate(-33 -156)"/>
  <path class="cls-1" d="M326.633,174.571h26.812v2.292H326.633v-2.292Z" transform="translate(-33 -156)"/>
  <path class="cls-1" d="M358.807,174.571H368v2.292h-9.193v-2.292Z" transform="translate(-33 -156)"/>
  <path id="Rounded_Rectangle_2" data-name="Rounded Rectangle 2" class="cls-4" d="M135.907,186.044c-0.013-12.666-.022-21.4-0.022-21.4a7.65,7.65,0,0,1,7.661-7.64h121.8a7.65,7.65,0,0,1,7.66,7.64v21.731" transform="translate(-33 -156)"/>
  <path class="cls-5" d="M135.926,190h137.25v72S242.933,264.569,234,276c0,0-9.918-7.468-16,0,0,0-16.472-10.375-40,0,0,0-20.028-20.036-42.074-15V190Z" transform="translate(-33 -156)"/>
  <path class="cls-6" d="M121,262.869S152.769,251.1,177.259,275.2c0,0,24.515-9.154,40.98,0,0,0,7.928-6.611,14.585,0,0,0,25.4-18.373,54.176-12.333" transform="translate(-33 -156)"/>
  <rect class="cls-7" x="103" y="30" width="138" height="3"/>
  <circle class="cls-7" cx="115" cy="16" r="4"/>
  <circle id="Ellipse_4_copy" data-name="Ellipse 4 copy" class="cls-7" cx="125" cy="16" r="4"/>
  <circle id="Ellipse_4_copy_2" data-name="Ellipse 4 copy 2" class="cls-7" cx="135" cy="16" r="4"/>
  <circle id="Ellipse_4_copy_3" data-name="Ellipse 4 copy 3" class="cls-7" cx="155" cy="66" r="4"/>
  <circle id="Ellipse_4_copy_4" data-name="Ellipse 4 copy 4" class="cls-7" cx="185" cy="66" r="4"/>
  <path class="cls-8" d="M183.052,246.5s19.636-16.3,41.036,1" transform="translate(-33 -156)"/>
  <path class="cls-9" d="M246,206.518a2.5,2.5,0,0,1-5,0c0-1.372,2.5-5.52,2.5-5.52S246,205.146,246,206.518Z" transform="translate(-33 -156)"/>
  <path id="Shape_7_copy" data-name="Shape 7 copy" class="cls-9" d="M253,211.518a2.5,2.5,0,0,1-5,0c0-1.372,2.5-5.52,2.5-5.52S253,210.146,253,211.518Z" transform="translate(-33 -156)"/>
  <path class="cls-6" d="M262,271s11.048-7.622,21-2" transform="translate(-33 -156)"/>
  <path class="cls-6" d="M141,273.026a21.7,21.7,0,0,1,20.349,12.328s5.573-4.952,14.651.822" transform="translate(-33 -156)"/>
</svg>
