<svg xmlns="http://www.w3.org/2000/svg" width="124" height="99" viewBox="0 0 124 99">
  <metadata><?xpacket begin="﻿" id="W5M0MpCehiHzreSzNTczkc9d"?>
<x:xmpmeta xmlns:x="adobe:ns:meta/" x:xmptk="Adobe XMP Core 5.6-c140 79.160451, 2017/05/06-01:08:21        ">
   <rdf:RDF xmlns:rdf="http://www.w3.org/1999/02/22-rdf-syntax-ns#">
      <rdf:Description rdf:about=""/>
   </rdf:RDF>
</x:xmpmeta>
                                                                                                    
                                                                                                    
                                                                                                    
                                                                                                    
                                                                                                    
                                                                                                    
                                                                                                    
                                                                                                    
                                                                                                    
                                                                                                    
                                                                                                    
                                                                                                    
                                                                                                    
                                                                                                    
                                                                                                    
                                                                                                    
                                                                                                    
                                                                                                    
                                                                                                    
                                                                                                    
                           
<?xpacket end="w"?></metadata>
<defs>
    <style>
      .cls-1 {
        fill: #f6b846;
        fill-rule: evenodd;
      }
    </style>
  </defs>
  <path class="cls-1" d="M430.436,58.209a8.091,8.091,0,0,1-2.463-5.772c0-4.981,4.931-9.309,10.936-9.309S450,47.456,450,52.437c0,4.853-4.314,8.787-9.857,9.443L423.505,100.3a348.265,348.265,0,0,0-35.583-2.228c-14.942,0-25.878,1.571-35.426,2.228L336.167,61.749c-5.393,0-10.169-4.328-10.169-9.312,0-5.112,5.084-9.44,11.094-9.44s10.936,4.328,10.936,9.44c0,1.444-.462,2.756-2.621,5.641l15.867,15.34L367.9,46.143a9.382,9.382,0,0,1-8.626-9.178c0-5.506,5.235-9.965,11.707-9.965,6.314,0,11.706,4.459,11.706,9.965a8.828,8.828,0,0,1-5.392,8L388.23,71.974h0.308l10.474-27.008a9.683,9.683,0,0,1-4.618-8c0-5.506,5.234-9.965,11.707-9.965,6.314,0,11.707,4.459,11.707,9.965,0,4.722-3.238,7.869-8.01,9.178l5.389,27.275ZM343.252,126c0-5.9-.154-17.7,8.936-18.356,9.548-.656,20.484-2.231,35.425-2.231a345.9,345.9,0,0,1,35.584,2.231c9.861,1.047,9.707,11.013,9.707,18.356H343.252Z" transform="translate(-326 -27)"/>
</svg>
