<svg xmlns="http://www.w3.org/2000/svg" width="171" height="138" viewBox="0 0 171 138">
  <metadata><?xpacket begin="﻿" id="W5M0MpCehiHzreSzNTczkc9d"?>
<x:xmpmeta xmlns:x="adobe:ns:meta/" x:xmptk="Adobe XMP Core 5.6-c140 79.160451, 2017/05/06-01:08:21        ">
   <rdf:RDF xmlns:rdf="http://www.w3.org/1999/02/22-rdf-syntax-ns#">
      <rdf:Description rdf:about=""/>
   </rdf:RDF>
</x:xmpmeta>
                                                                                                    
                                                                                                    
                                                                                                    
                                                                                                    
                                                                                                    
                                                                                                    
                                                                                                    
                                                                                                    
                                                                                                    
                                                                                                    
                                                                                                    
                                                                                                    
                                                                                                    
                                                                                                    
                                                                                                    
                                                                                                    
                                                                                                    
                                                                                                    
                                                                                                    
                                                                                                    
                           
<?xpacket end="w"?></metadata>
<defs>
    <style>
      .cls-1, .cls-5 {
        fill: #fff;
      }

      .cls-1, .cls-2, .cls-3 {
        fill-rule: evenodd;
      }

      .cls-2, .cls-4 {
        fill: #de5f66;
      }

      .cls-3 {
        fill: none;
        stroke: #fff;
        stroke-width: 1px;
      }

      .cls-5 {
        font-size: 36px;
        text-anchor: middle;
        font-family: "Kohinoor Devanagari";
        font-weight: 700;
      }
    </style>
  </defs>
  <path id="Rounded_Rectangle_4" data-name="Rounded Rectangle 4" class="cls-1" d="M244,203.19V257a10,10,0,0,1-10,10H167a10,10,0,0,1-10-10V203.236m0-30.522V139a10,10,0,0,1,10-10h67a10,10,0,0,1,10,10v33.664M200.5,245a7.5,7.5,0,1,1-7.5,7.5A7.5,7.5,0,0,1,200.5,245ZM186,136h31a2,2,0,0,1,0,4H186A2,2,0,0,1,186,136Zm-22,9h74v95H164V145Z" transform="translate(-107.5 -129)"/>
  <path class="cls-2" d="M266.2,147.592A7.732,7.732,0,0,0,271,147a7.743,7.743,0,0,0-4.8-.592,7.734,7.734,0,0,0,3.859-2.91,7.739,7.739,0,0,0-4.45,1.887,7.748,7.748,0,0,0,1.887-4.45,7.743,7.743,0,0,0-2.911,3.859A7.734,7.734,0,0,0,264,140a7.736,7.736,0,0,0-.59,4.8,7.739,7.739,0,0,0-2.911-3.86,7.742,7.742,0,0,0,1.887,4.451,7.729,7.729,0,0,0-4.45-1.888,7.741,7.741,0,0,0,3.859,2.911A7.734,7.734,0,0,0,257,147a7.742,7.742,0,0,0,4.8.591,7.728,7.728,0,0,0-3.859,2.91,7.742,7.742,0,0,0,4.45-1.887,7.742,7.742,0,0,0-1.887,4.45,7.728,7.728,0,0,0,2.91-3.859A7.749,7.749,0,0,0,264,154a7.734,7.734,0,0,0,.591-4.8,7.749,7.749,0,0,0,2.911,3.859,7.742,7.742,0,0,0-1.887-4.45,7.739,7.739,0,0,0,4.45,1.887A7.737,7.737,0,0,0,266.2,147.592Z" transform="translate(-107.5 -129)"/>
  <path class="cls-3" d="M273,162a5,5,0,1,1-5,5A5,5,0,0,1,273,162ZM149,220v1H119v-1h30Zm-14,7v1H108v-1h27Z" transform="translate(-107.5 -129)"/>
  <rect id="Rounded_Rectangle_5" data-name="Rounded Rectangle 5" class="cls-4" x="25.5" y="44" width="135" height="30" rx="10" ry="10"/>
  <text id="_" data-name="*" class="cls-5" x="59.098" y="78.187">*</text>
  <text id="_copy" data-name="* copy" class="cls-5" x="79.098" y="78.187">*</text>
  <text id="_copy_2" data-name="* copy 2" class="cls-5" x="99.098" y="78.187">*</text>
  <text id="_copy_3" data-name="* copy 3" class="cls-5" x="119.098" y="78.187">*</text>
</svg>
