<svg xmlns="http://www.w3.org/2000/svg" width="174" height="174" viewBox="0 0 174 174">
  <metadata><?xpacket begin="﻿" id="W5M0MpCehiHzreSzNTczkc9d"?>
<x:xmpmeta xmlns:x="adobe:ns:meta/" x:xmptk="Adobe XMP Core 5.6-c140 79.160451, 2017/05/06-01:08:21        ">
   <rdf:RDF xmlns:rdf="http://www.w3.org/1999/02/22-rdf-syntax-ns#">
      <rdf:Description rdf:about=""/>
   </rdf:RDF>
</x:xmpmeta>
                                                                                                    
                                                                                                    
                                                                                                    
                                                                                                    
                                                                                                    
                                                                                                    
                                                                                                    
                                                                                                    
                                                                                                    
                                                                                                    
                                                                                                    
                                                                                                    
                                                                                                    
                                                                                                    
                                                                                                    
                                                                                                    
                                                                                                    
                                                                                                    
                                                                                                    
                                                                                                    
                           
<?xpacket end="w"?></metadata>
<defs>
    <style>
      .cls-1, .cls-7 {
        fill: #f4f1f1;
      }

      .cls-2 {
        fill: #ffde0b;
      }

      .cls-3 {
        fill: #d8a911;
      }

      .cls-4 {
        fill: #fec200;
      }

      .cls-5 {
        fill: #a08632;
      }

      .cls-5, .cls-7, .cls-8 {
        fill-rule: evenodd;
      }

      .cls-6 {
        fill: #fff;
      }

      .cls-8 {
        fill: red;
      }
    </style>
  </defs>
  <circle class="cls-1" cx="87" cy="87" r="87"/>
  <ellipse class="cls-2" cx="87" cy="87.5" rx="74" ry="72.5"/>
  <ellipse id="Ellipse_1_copy_2" data-name="Ellipse 1 copy 2" class="cls-3" cx="88" cy="87.5" rx="64" ry="62.5"/>
  <ellipse id="Ellipse_1_copy" data-name="Ellipse 1 copy" class="cls-4" cx="88.5" cy="88" rx="62.5" ry="61"/>
  <path class="cls-5" d="M446,271l4-7,45,1-5,6H478s2.892,4.671,3,7h14l-4,7h-9s-2.559,15.225-24,18l28,34H474l-26-32v-7s17.268,1.5,23-7c0,0,1.57-3.743,1-6H446l4-7h21s-0.549-4.91-10-7H446Z" transform="translate(-382 -205)"/>
  <ellipse id="Ellipse_1_copy_3" data-name="Ellipse 1 copy 3" class="cls-6" cx="117" cy="140" rx="18" ry="17"/>
  <path class="cls-7" d="M445,224a50.874,50.874,0,0,1,27-4l-5,3,22,29-19,20,11,16-25,47,10-45-16-21,14-10S450.705,225.73,445,224Z" transform="translate(-382 -205)"/>
  <path class="cls-8" d="M496.364,346.069l-3.29-3.367a0.972,0.972,0,0,1,.235-1.1l1.41-1.409a0.93,0.93,0,0,1,1.1,0l3.212,3.131,3.056-3.053a0.917,0.917,0,0,1,1.253-.078l1.489,1.566a0.922,0.922,0,0,1,0,1.1l-3.212,3.131,3.212,3.21a0.87,0.87,0,0,1,.078.939l-1.645,1.723a1.084,1.084,0,0,1-1.175-.157l-2.977-2.975-3.056,2.9a0.882,0.882,0,0,1-1.175.235l-1.8-1.723a1.026,1.026,0,0,1,.391-1.174Z" transform="translate(-382 -205)"/>
</svg>
