<svg xmlns="http://www.w3.org/2000/svg" width="512" height="512.062" viewBox="0 0 512 512.062">
  <metadata><?xpacket begin="﻿" id="W5M0MpCehiHzreSzNTczkc9d"?>
<x:xmpmeta xmlns:x="adobe:ns:meta/" x:xmptk="Adobe XMP Core 5.6-c140 79.160451, 2017/05/06-01:08:21        ">
   <rdf:RDF xmlns:rdf="http://www.w3.org/1999/02/22-rdf-syntax-ns#">
      <rdf:Description rdf:about=""/>
   </rdf:RDF>
</x:xmpmeta>
                                                                                                    
                                                                                                    
                                                                                                    
                                                                                                    
                                                                                                    
                                                                                                    
                                                                                                    
                                                                                                    
                                                                                                    
                                                                                                    
                                                                                                    
                                                                                                    
                                                                                                    
                                                                                                    
                                                                                                    
                                                                                                    
                                                                                                    
                                                                                                    
                                                                                                    
                                                                                                    
                           
<?xpacket end="w"?></metadata>
<defs>
    <style>
      .cls-1 {
        fill: #fef6f8;
      }

      .cls-2 {
        fill: #f8e9ed;
      }

      .cls-2, .cls-3, .cls-4 {
        fill-rule: evenodd;
      }

      .cls-3 {
        fill: #f3dee3;
      }

      .cls-4 {
        fill: #eed7dc;
      }
    </style>
  </defs>
  <circle class="cls-1" cx="256" cy="256" r="256"/>
  <path class="cls-2" d="M383,929s6.192-139.1,1-160l295-35s8.756,106.05,1,206c0,0-61.744,41.751-150,40C530,980,453.557,981.232,383,929Z" transform="translate(-285 -468)"/>
  <path class="cls-3" d="M383,770s-4.792-95.174-15-121l27,12,22-22,27,12,22-20,27,11,21-22,27,12,21-21,28,11,21-21,27,13,22-21s17.532,111.1,19,141c0,0-68.906,28.11-143.355,37.165C462.1,780.11,383,770,383,770Z" transform="translate(-285 -468)"/>
  <path class="cls-4" d="M526.826,878.878c0-10.671.478-14.748,8.339-20.341,4.283-3.049,6.862-4.964,6.862-9.521,0-8.67-3.874-10.263-8.523-10.263-6.2,0-9.306,4.228-9.741,8.336V847.2H502.99c0-19.34,19.666-31.2,31.732-31.2,13.244,0,31.288,7.077,31.288,28.862,0,9-1.919,15.82-10.442,21.933-4.76,3.446-6.752,4.076-6.752,12.079h-21.99ZM549.185,902H527.121V886.324h22.064V902Z" transform="translate(-285 -468)"/>
</svg>
