<svg id="Series" xmlns="http://www.w3.org/2000/svg" width="249" height="270" viewBox="0 0 249 270">
  <metadata><?xpacket begin="﻿" id="W5M0MpCehiHzreSzNTczkc9d"?>
<x:xmpmeta xmlns:x="adobe:ns:meta/" x:xmptk="Adobe XMP Core 5.6-c140 79.160451, 2017/05/06-01:08:21        ">
   <rdf:RDF xmlns:rdf="http://www.w3.org/1999/02/22-rdf-syntax-ns#">
      <rdf:Description rdf:about=""/>
   </rdf:RDF>
</x:xmpmeta>
                                                                                                    
                                                                                                    
                                                                                                    
                                                                                                    
                                                                                                    
                                                                                                    
                                                                                                    
                                                                                                    
                                                                                                    
                                                                                                    
                                                                                                    
                                                                                                    
                                                                                                    
                                                                                                    
                                                                                                    
                                                                                                    
                                                                                                    
                                                                                                    
                                                                                                    
                                                                                                    
                           
<?xpacket end="w"?></metadata>
<defs>
    <style>
      .cls-1 {
        fill: #3aa5af;
      }

      .cls-1, .cls-2, .cls-3, .cls-4 {
        fill-rule: evenodd;
      }

      .cls-2 {
        fill: #2b757c;
      }

      .cls-3 {
        fill: #43969d;
      }

      .cls-4 {
        fill: #fff;
      }
    </style>
  </defs>
  <path class="cls-1" d="M153,134H402L368,309s-44.41,50-89.355,50C232.6,359,186,309,186,309Zm36-45H370s-7.668,16.5-.822,26.767C377.233,127.85,400,134,400,134l-244,1s21.024-8.883,29-20C193.507,103.141,189,89,189,89Z" transform="translate(-153 -89)"/>
  <path id="Rectangle_4_copy" data-name="Rectangle 4 copy" class="cls-2" d="M172,130.167H384L355.052,278.593S317.241,321,278.975,321c-39.2,0-78.879-42.407-78.879-42.407ZM202.651,92h154.1s-6.529,13.993-.7,22.7c6.858,10.248,26.242,15.465,26.242,15.465l-207.743.848s17.9-7.534,24.691-16.963C206.488,103.994,202.651,92,202.651,92Z" transform="translate(-153 -89)"/>
  <path class="cls-3" d="M281,93l-8,229s-45.785-15.476-73-43L174,133s31.226-12.726,30-41Z" transform="translate(-153 -89)"/>
  <path class="cls-4" d="M272,329h1v25h-1V329Z" transform="translate(-153 -89)"/>
  <path class="cls-4" d="M276,330h1v23h-1V330Z" transform="translate(-153 -89)"/>
  <path class="cls-4" d="M281.5,330.02l1-.04,1,25-1,.04Z" transform="translate(-153 -89)"/>
  <path class="cls-4" d="M287.5,330.042l1-.084,2,24-1,.084Z" transform="translate(-153 -89)"/>
  <path class="cls-4" d="M293.5,328.062l0.992-.124,3,24-0.992.124Z" transform="translate(-153 -89)"/>
  <path class="cls-4" d="M300.51,329.1l0.98-.2,4,20-0.98.2Z" transform="translate(-153 -89)"/>
  <path class="cls-4" d="M267.5,330.953l1,0.094-2,21-1-.094Z" transform="translate(-153 -89)"/>
  <path class="cls-4" d="M261.505,328.932l0.99,0.136-3,22-0.99-.136Z" transform="translate(-153 -89)"/>
  <path class="cls-4" d="M256.512,327.889l0.976,0.222-5,22-0.976-.222Z" transform="translate(-153 -89)"/>
  <path class="cls-4" d="M249.515,324.879l0.97,0.242-5,20-0.97-.242Z" transform="translate(-153 -89)"/>
  <path class="cls-4" d="M242.534,323.819l0.932,0.362-7,18-0.932-.362Z" transform="translate(-153 -89)"/>
</svg>
