<svg id="Capa_1" enable-background="new 0 0 512 512" height="512" viewBox="0 0 512 512" width="512" xmlns="http://www.w3.org/2000/svg"><g><path d="m256 50.92-20.016 50.028 20.016 50.028c33.104 0 60.036-26.932 60.036-60.035v-40.021z" fill="#00cc76"/><path d="m195.964 50.92v40.02c0 33.104 26.932 60.035 60.036 60.035v-100.055z" fill="#a5e887"/><path d="m406.096 271.072c0-82.764-67.333-150.097-150.096-150.097l-20.016 155.053 20.016 185.052h150.096z" fill="#009986"/><path d="m105.904 271.072v190.008h150.096v-340.104c-82.763 0-150.096 67.333-150.096 150.096z" fill="#00cc76"/><g fill="#ffde55"><path d="m0 281.032h56.395v30h-56.395z"/><path d="m17.34 368.208h56.395v30h-56.395z" transform="matrix(.924 -.383 .383 .924 -143.179 46.595)"/><path d="m30.538 180.659h30v56.395h-30z" transform="matrix(.383 -.924 .924 .383 -164.847 171.003)"/><path d="m455.605 281.032h56.395v30h-56.395z"/><path d="m451.462 355.011h30v56.395h-30z" transform="matrix(.383 -.924 .924 .383 -66.082 667.519)"/><path d="m438.265 193.856h56.395v30h-56.395z" transform="matrix(.924 -.383 .383 .924 -44.418 194.402)"/></g><path d="m320.449 241.553v-30h-49.449v-33.316h-15l-10.008 44.404 10.008 18.912z" fill="#e1ebf0"/><path d="m289.343 306.028v34.474h-33.343l-10.008 14.722 10.008 48.595h15v-33.317h48.343v-94.474h-63.343l-10.008 15.862 10.008 14.138z" fill="#e1ebf0"/><path d="m222.657 241.553h33.343v-63.316h-15v33.316h-48.343v94.475h63.343v-30h-33.343z" fill="#fff5f5"/><path d="m191.551 340.502v30h49.449v33.317h15v-63.317z" fill="#fff5f5"/></g></svg>