<svg id="Capa_1" enable-background="new 0 0 512 512" height="512" viewBox="0 0 512 512" width="512" xmlns="http://www.w3.org/2000/svg"><g><path d="m391.904 30.024v-30.024h-135.904l-20.016 50.04z" fill="#ffde55"/><path d="m256 0h-135.905v30.024l135.905 20.016z" fill="#fff79f"/><path d="m256 30.024-20.016 50.04 155.92-20.016v-30.024z" fill="#ffb655"/><path d="m120.095 30.024v30.024l135.905 20.016v-50.04z" fill="#ffde55"/><path d="m301.024 277.513h-45.024l-20.016 174.439h65.04z" fill="#ffb655"/><path d="m210.976 277.513h45.023v174.439h-45.023z" fill="#ffde55"/><path d="m142.167 260.184h-14.981c-53.575 0-97.161-43.586-97.161-97.161v-102.975h90.071l15 30h-75.072v72.975c0 37.033 30.128 67.161 67.161 67.161h14.981v30z" fill="#ffde55"/><path d="m384.814 260.184h-14.981v-30h14.981c37.033 0 67.162-30.128 67.162-67.161v-72.975h-75.072l15-30h90.072v102.975c0 53.575-43.587 97.161-97.162 97.161z" fill="#ffb655"/><path d="m361.879 497v-75.048h-105.879l-20.016 75.048z" fill="#495959"/><path d="m150.12 421.952h105.88v75.048h-105.88z" fill="#607882"/><path d="m256 60.048-20.016 122.952 20.016 157.248c74.938 0 135.904-60.967 135.904-135.904v-144.296z" fill="#ffde55"/><path d="m120.095 60.048v144.296c0 74.938 60.967 135.904 135.904 135.904v-280.2z" fill="#fff79f"/><path d="m391.879 482h-135.879l-10.008 15 10.008 15h135.879z" fill="#607882"/><path d="m120.12 482h135.88v30h-135.88z" fill="#87a0af"/></g></svg>